<?xml version="1.0" standalone="no"?>
<!DOCTYPE svg PUBLIC "-//W3C//DTD SVG 20010904//EN"
 "http://www.w3.org/TR/2001/REC-SVG-20010904/DTD/svg10.dtd">
<svg version="1.0" xmlns="http://www.w3.org/2000/svg"
 width="1000.000000pt" height="1000.000000pt" viewBox="0 0 1000.000000 1000.000000"
 preserveAspectRatio="xMidYMid meet">
<metadata>
Created by potrace 1.14, written by Peter Selinger 2001-2017
</metadata>
<g transform="translate(0.000000,1000.000000) scale(0.100000,-0.100000)"
fill="#000000" stroke="none">
<path d="M4714 8274 c-141 -73 -305 -251 -413 -447 -84 -152 -165 -413 -191
-612 -6 -49 -14 -101 -17 -115 -3 -14 -6 -730 -7 -1592 -1 -862 -5 -1570 -9
-1574 -4 -4 -7 -3 -7 2 0 5 -15 32 -32 60 -136 209 -352 400 -581 515 -302
152 -692 194 -1011 108 -23 -6 -48 -12 -56 -14 -38 -8 -173 -61 -245 -98 -383
-191 -663 -541 -769 -959 -32 -123 -41 -205 -41 -358 0 -193 17 -306 71 -467
126 -377 401 -689 758 -862 81 -39 232 -94 286 -105 14 -2 46 -9 71 -15 107
-25 316 -33 443 -19 438 51 830 292 1071 657 26 39 48 71 48 71 1 0 2 -147 1
-327 -1 -362 1 -374 60 -398 49 -21 90 -9 121 33 20 27 20 48 21 2652 1 1444
4 2645 7 2670 4 25 9 61 12 80 2 19 7 55 10 80 3 25 8 53 11 62 3 9 6 25 8 35
2 10 9 38 16 63 7 25 13 50 15 55 2 11 5 20 42 120 77 208 218 400 370 503 35
23 67 51 73 62 43 80 -54 176 -136 134z"/>
<path d="M7577 8285 c-1 -2 -50 -6 -110 -9 -59 -4 -115 -9 -125 -10 -9 -2 -48
-7 -86 -11 -38 -4 -79 -9 -90 -10 -45 -8 -203 -35 -231 -40 -67 -12 -317 -77
-410 -106 -406 -126 -812 -360 -1130 -649 -134 -122 -249 -249 -398 -440 -79
-101 -229 -348 -288 -475 -48 -103 -50 -141 -9 -180 30 -29 31 -29 143 -27
163 3 372 18 497 37 14 2 49 7 79 10 30 4 63 9 75 11 11 2 38 6 61 9 247 36
614 141 825 236 371 169 657 366 935 644 210 210 337 388 490 690 103 201 106
211 89 256 -23 56 -43 63 -187 64 -70 1 -128 1 -130 0z"/>
<path d="M4725 4651 c-17 -10 -36 -25 -44 -34 -19 -23 -20 -2801 -1 -2846 27
-67 131 -73 169 -10 18 29 19 81 19 1077 1 732 4 1062 12 1097 19 83 68 198
105 242 5 7 23 30 40 51 36 46 118 116 176 149 50 28 166 69 223 77 344 53
664 -166 747 -512 8 -33 12 -361 13 -1102 2 -1157 -2 -1085 63 -1115 26 -13
37 -13 70 -3 73 25 69 -41 68 1057 0 540 3 1025 6 1079 19 262 193 487 443
569 107 35 277 41 376 14 250 -70 428 -261 481 -516 9 -45 12 -314 13 -1100 2
-823 5 -1045 15 -1063 25 -46 91 -58 143 -27 44 26 43 7 42 1080 0 561 -4
1051 -8 1089 -37 335 -286 630 -611 725 -83 24 -144 32 -240 32 -62 0 -96 -3
-170 -16 -203 -33 -427 -184 -544 -365 -20 -31 -40 -57 -44 -58 -5 -2 -26 25
-48 58 -126 196 -358 343 -589 375 -53 7 -221 8 -241 1 -8 -3 -31 -7 -52 -11
-144 -20 -377 -151 -461 -257 -29 -38 -27 -46 -28 102 0 99 -13 142 -46 158
-38 20 -68 21 -97 3z"/>
</g>
</svg>
