<?xml version="1.0" encoding="UTF-8" standalone="no"?>
<!-- Created with Inkscape (http://www.inkscape.org/) -->

<svg
   version="1.1"
   id="svg2"
   width="150"
   height="150"
   viewBox="0 0 150 150"
   sodipodi:docname="donna-incinta.svg"
   inkscape:export-filename="Users\antob\Desktop\SITO 🔧 VALE\ICONE\round icons\sezione 2\donna-incinta.png"
   inkscape:export-xdpi="96"
   inkscape:export-ydpi="96"
   inkscape:version="1.2.2 (732a01da63, 2022-12-09)"
   xmlns:inkscape="http://www.inkscape.org/namespaces/inkscape"
   xmlns:sodipodi="http://sodipodi.sourceforge.net/DTD/sodipodi-0.dtd"
   xmlns="http://www.w3.org/2000/svg"
   xmlns:svg="http://www.w3.org/2000/svg">
  <defs
     id="defs6" />
  <sodipodi:namedview
     id="namedview4"
     pagecolor="#ffffff"
     bordercolor="#000000"
     borderopacity="0.25"
     inkscape:showpageshadow="2"
     inkscape:pageopacity="0.0"
     inkscape:pagecheckerboard="0"
     inkscape:deskcolor="#d1d1d1"
     showgrid="false"
     inkscape:zoom="5.58"
     inkscape:cx="42.293907"
     inkscape:cy="75.089606"
     inkscape:window-width="1920"
     inkscape:window-height="1017"
     inkscape:window-x="-8"
     inkscape:window-y="-8"
     inkscape:window-maximized="1"
     inkscape:current-layer="g8" />
  <g
     inkscape:groupmode="layer"
     inkscape:label="Image"
     id="g8">
    <path
       id="path1008"
       style="fill:#000000;fill-opacity:1;stroke:none;stroke-width:2.92969;stroke-linecap:round;stroke-linejoin:round;stroke-dasharray:none;stroke-opacity:1;paint-order:stroke fill markers"
       d="M 75,0 A 75,75 0 0 0 0,75 75,75 0 0 0 75,150 75,75 0 0 0 150,75 75,75 0 0 0 75,0 Z m -8.302734,25 c 2.928844,0.0058 3.767266,0.09611 5.623046,0.59375 2.863597,0.767902 6.375627,2.513806 8.445313,4.236328 3.500446,2.913249 6.019531,7.419673 6.019531,11.236328 0,0.518456 0.02413,0.954159 -0.232422,1.458985 -0.256554,0.504824 -0.636498,0.744307 -1.044922,1.027343 -0.117623,0.08151 -0.186815,0.153307 -0.259765,0.222657 0.154903,0.622763 0.276293,1.256856 0.345703,2.105468 0.08918,1.090236 0.128471,2.231508 0.05664,3.070313 -0.776851,9.071654 -7.448727,15.851317 -16.257813,16.447266 -0.184159,0.01246 -0.297718,0.03028 -0.464844,0.04492 0.03438,0.0562 0.137172,0.230855 0.107422,0.208985 -0.06161,-0.04527 0.0061,0.0061 0.449219,0.06836 7.165449,1.006681 13.316995,6.826273 15.222656,14.277344 0.105545,0.412682 0.220927,0.811401 0.316407,1.099609 0.02089,0.06309 0.03451,0.09171 0.05273,0.142578 0.141369,0.04778 0.31881,0.101869 0.5,0.142578 0.393605,0.08844 0.459026,0.0574 0.347656,0.08789 -0.11137,0.03049 -0.0527,0.03283 0.230469,-0.240234 0.937697,-0.904242 2.092906,-1.34031 3.476562,-1.339844 0.499347,1.65e-4 1.039296,0.09555 1.628907,0.328125 0.589609,0.232576 1.26864,0.586208 2.304687,1.154297 1.374714,0.753788 2.28825,1.298175 2.972656,1.839844 0.684408,0.541667 1.146069,1.137293 1.419922,1.777343 0.429394,1.003413 0.479464,2.114897 0.146485,3.15625 0.03999,0.07554 0.18832,0.302231 0.490234,0.66211 2.171015,2.58782 3.692935,5.540497 4.564445,8.847656 0.46481,1.763786 0.57991,2.766711 0.59961,5.199221 0.0303,3.75216 -0.59292,6.51928 -2.20117,9.74023 -3.054425,6.11737 -8.599227,10.47884 -15.236323,11.97852 l -0.111328,0.0234 h -0.0332 c -1.583173,0.34156 -3.204204,0.38306 -14.199219,0.39843 -6.087156,0.008 -9.194927,0.01 -10.910156,-0.043 -0.857614,-0.0263 -1.36821,-0.0603 -1.785156,-0.13867 -0.416946,-0.0784 -0.77625,-0.25602 -0.96875,-0.375 -0.695962,-0.43012 -1.162896,-1.05094 -1.511719,-1.77148 -0.227685,-0.47035 -0.433415,-1.05836 -0.478515,-2.19922 -0.0451,-1.14086 -0.01608,-3.02743 0.03906,-6.75781 0.08295,-5.61138 0.186124,-8.06039 0.457031,-9.58594 0.227816,-1.28286 0.402803,-4.530236 0.445313,-8.32422 0.04251,-3.793984 -0.02939,-8.201089 -0.228516,-12.060547 C 56.5868,75.05049 56.494379,72.283899 57.148438,70.527344 l -0.181641,-0.05078 c -3.298856,-0.914798 -7.049012,-2.746288 -8.773438,-4.537109 -0.587829,-0.610461 -0.987785,-1.429908 -1.251953,-2.513672 -0.264166,-1.083764 -0.428274,-2.471484 -0.574218,-4.443359 -0.516632,-6.980168 0.578348,-17.375033 2.474609,-23.134766 1.307412,-3.971165 4.192919,-6.899635 8.75,-9.035156 2.938418,-1.376991 5.184158,-1.8202 9.105469,-1.8125 z m 0.349609,4.097656 c -0.62974,-0.01622 -1.265822,0.0052 -1.900391,0.06055 -3.807411,0.33202 -7.587443,1.912948 -9.96875,4.287109 -1.5396,1.53499 -2.048903,2.521424 -2.832031,5.552735 -0.762248,2.95053 -0.93516,3.972552 -1.308594,7.701172 -0.32125,3.207597 -0.472405,6.573048 -0.453125,9.447265 0.01928,2.874219 0.233941,5.307321 0.53125,6.41211 0.01276,0.0474 0.211888,0.395467 0.667969,0.779297 0.456082,0.383828 1.12969,0.820831 1.943359,1.24414 1.62734,0.84662 3.819034,1.652334 6.087891,2.164063 0.826547,0.186424 2.82772,0.434999 4.210938,0.505859 l 0.982421,0.05078 -0.0918,-0.21289 C 63.548277,63.90031 62.47995,59.071245 62.46875,55.896484 V 55.533203 L 61.955078,55.3125 c -2.376732,-1.028917 -3.865979,-3.374417 -3.855469,-6.007812 0.0063,-1.50663 0.349635,-2.611583 1.19336,-3.837891 0.851559,-1.237703 2.272364,-1.945834 3.779297,-2.232422 1.506931,-0.286588 3.145338,-0.153131 4.544922,0.568359 1.26373,0.651456 2.302683,0.758693 4.570312,0.367188 3.125564,-0.539623 5.950392,-1.436155 8.316406,-2.626953 0.62623,-0.315176 1.217786,-0.630463 1.65625,-0.875 0.143502,-0.08003 0.23556,-0.135726 0.339844,-0.197266 -0.0246,-0.195898 -0.06736,-0.453012 -0.152344,-0.773437 -0.193171,-0.728355 -0.531193,-1.645829 -0.904297,-2.386719 -2.14103,-4.251512 -6.550316,-7.151606 -12.53125,-8.050781 -0.612092,-0.09202 -1.235494,-0.14589 -1.865234,-0.16211 z m 14.330078,16.851563 c -2.419905,1.106201 -6.494007,2.257424 -9.435547,2.630859 -2.300029,0.291995 -4.281918,0.0852 -5.873047,-0.74414 -1.063411,-0.554285 -1.786994,-0.585121 -2.615234,-0.21875 -0.949443,0.419982 -1.197899,1.218507 -1.021484,2.103515 0.176414,0.885008 0.823533,1.692033 1.939453,1.859375 0.32738,0.04909 0.641469,0.126176 0.927734,0.222656 0.286265,0.09649 0.495954,0.107305 0.869141,0.480469 0.33157,0.331582 0.337461,0.53607 0.394531,0.753906 0.05707,0.217838 0.0959,0.450305 0.130859,0.726563 0.06992,0.552514 0.119624,1.278918 0.158203,2.220703 0.04106,1.002721 0.190765,2.464253 0.357422,3.666016 0.08289,0.597745 0.170484,1.134164 0.246094,1.509765 0.170605,0.0095 0.331859,0.02024 0.552734,0.02344 0.647829,0.0094 1.441307,-0.01538 1.992188,-0.06836 5.268673,-0.506693 9.739905,-4.544365 11.138672,-10.1875 0.139607,-0.563223 0.2708,-1.777984 0.3125,-2.925781 0.0318,-0.87542 -0.02402,-1.517256 -0.07422,-2.052734 z M 69.636719,69.220703 c 0.01681,0.01395 0.02279,0.04838 0.03906,0.0625 -1e-4,-6.5e-4 0.0098,-0.01544 0.0098,-0.01563 -8.4e-4,-0.0061 0.04195,0.02846 -0.04883,-0.04687 z m 0.572265,0.919922 c 0.233303,0.367669 0.47533,0.607945 0.771485,1.242187 0.515576,1.104154 1.193446,2.715844 2.142578,5.072266 0.777543,1.930408 1.202255,3.004784 1.427734,3.744141 0.112736,0.369677 0.184407,0.66409 0.191407,0.990234 0.0069,0.320458 -0.09908,0.668334 -0.210938,0.882813 0.02534,0.106444 0.167572,0.481619 0.476562,1.15039 2.41895,5.235494 6.79578,9.150916 11.910157,10.710938 1.807895,0.551456 2.966472,0.954926 3.884765,1.558594 0.918293,0.603668 1.492834,1.421273 1.980469,2.417968 1.342985,2.744954 0.577141,6.013304 -1.845703,7.876954 -1.014324,0.78022 -2.202759,1.22667 -3.546875,1.26367 -1.344116,0.037 -2.828914,-0.28667 -4.671875,-0.9043 C 73.965916,103.21317 66.772873,96.676931 63.183594,88.375 62.863853,87.635445 62.64994,87.222907 62.5625,87.095703 c -0.188394,-0.0263 -0.390764,-0.04842 -0.636719,-0.171875 -0.24158,-0.121259 -0.425291,-0.334794 -0.591797,-0.541016 0.352316,8.049203 0.272799,14.323508 -0.429687,19.050778 -0.19597,1.31865 -0.287109,3.83201 -0.287109,8.95899 -10e-7,3.40472 0.0065,5.19472 0.05469,6.08008 0.01083,0.19885 0.01543,0.17856 0.0293,0.28515 0.153007,0.0105 0.288747,0.0212 0.507812,0.0312 0.658877,0.029 1.588333,0.0533 2.691407,0.0703 2.206147,0.0343 5.117618,0.0422 8.070312,0.0293 2.952694,-0.013 5.947836,-0.0476 8.322266,-0.10156 1.187215,-0.027 2.21863,-0.0599 3.007812,-0.0957 0.789182,-0.0358 1.395289,-0.0901 1.480469,-0.10547 4.671251,-0.84526 9.079208,-3.76128 11.849609,-7.86524 3.0607,-4.53398 3.811155,-10.42175 1.984375,-15.583981 -0.612819,-1.731763 -1.987684,-4.178547 -2.90039,-5.238281 l -0.208985,-0.242188 -0.49414,0.28125 c -1.149651,0.651408 -1.861534,0.830078 -3.384766,0.830078 -1.377982,0 -2.204348,-0.156195 -3.117187,-0.605469 -2.471863,-1.216574 -4.0056,-3.534935 -4.09961,-6.242187 l -0.01953,-0.552734 -0.224609,-0.05664 C 83.299987,85.090654 82.511009,84.67464 81.943359,83.986328 81.375711,83.298016 81.035891,82.433818 80.716797,81.300781 79.7253,77.780193 78.501504,75.739062 75.914062,73.28125 74.84703,72.26767 74.049044,71.707542 72.904297,71.154297 72.1428,70.786271 71.127995,70.408311 70.300781,70.164062 c -0.0369,-0.0109 -0.05564,-0.01308 -0.0918,-0.02344 z m -5.910156,1.486328 c -1.274854,-0.02821 -1.902901,0.05196 -2.125,0.15625 -0.222098,0.104291 -0.370623,0.279102 -0.753906,1.0625 -0.347993,0.71128 -0.426192,0.925081 -0.283203,1.714844 0.142989,0.789763 0.628576,2.121514 1.574219,4.423828 0.44064,1.072819 0.855617,2.062098 1.166015,2.789063 0.072,0.168618 0.114088,0.264598 0.173828,0.402343 0.100712,-0.03541 0.157952,-0.05389 0.273438,-0.0957 0.677631,-0.245304 1.588216,-0.592324 2.501953,-0.951172 0.913736,-0.358846 1.833191,-0.729598 2.533203,-1.02539 0.18903,-0.07988 0.307468,-0.134642 0.458984,-0.201172 -0.05028,-0.147938 -0.07988,-0.248051 -0.146484,-0.433594 -0.276117,-0.76922 -0.680707,-1.828799 -1.142578,-2.976562 -1.254363,-3.117125 -1.968091,-4.34994 -2.103516,-4.480469 -0.304278,-0.29331 -0.218194,-0.24818 -0.380859,-0.28711 -0.162665,-0.03893 -0.694961,-0.0744 -1.746094,-0.09766 z m 6.476563,12.517578 c -0.0057,0.002 -0.008,0.0019 -0.01367,0.0039 -0.516436,0.18338 -1.210091,0.447815 -1.90625,0.724609 -0.696161,0.276793 -1.397184,0.566194 -1.931641,0.800781 -0.100127,0.04395 -0.155197,0.07189 -0.242187,0.111328 v 0.002 c 0.191261,0.471045 0.503445,1.138233 0.86914,1.859375 0.731394,1.442286 1.697794,3.129062 2.355469,4.050782 3.71301,5.203722 9.602747,9.308884 15.582031,10.875004 0.984989,0.25798 1.465875,0.35737 1.654297,0.35937 0.188423,0.002 0.258719,-0.0283 0.78125,-0.26562 1.451992,-0.65943 1.782549,-2.27498 0.728516,-3.392582 -0.388274,-0.411689 -0.687472,-0.570949 -2.31836,-1.074219 -5.351671,-1.651468 -9.710234,-4.739857 -12.824218,-9.111328 -0.512587,-0.719576 -1.204186,-1.927597 -1.808594,-3.0625 -0.302205,-0.567453 -0.576726,-1.107178 -0.783203,-1.550782 -0.05719,-0.122862 -0.09601,-0.221744 -0.142578,-0.330078 z" />
  </g>
</svg>
