<?xml version="1.0" encoding="UTF-8" standalone="no"?>
<!-- Created with Inkscape (http://www.inkscape.org/) -->

<svg
   version="1.1"
   id="svg2"
   width="150"
   height="150"
   viewBox="0 0 150 150"
   sodipodi:docname="intolleranze-alimentari.svg"
   inkscape:export-filename="Users\antob\Desktop\SITO 🔧 VALE\ICONE\round icons\sezione 2\intolleranze-alimentari.png"
   inkscape:export-xdpi="96"
   inkscape:export-ydpi="96"
   inkscape:version="1.2.2 (732a01da63, 2022-12-09)"
   xmlns:inkscape="http://www.inkscape.org/namespaces/inkscape"
   xmlns:sodipodi="http://sodipodi.sourceforge.net/DTD/sodipodi-0.dtd"
   xmlns="http://www.w3.org/2000/svg"
   xmlns:svg="http://www.w3.org/2000/svg">
  <defs
     id="defs6" />
  <sodipodi:namedview
     id="namedview4"
     pagecolor="#ffffff"
     bordercolor="#000000"
     borderopacity="0.25"
     inkscape:showpageshadow="2"
     inkscape:pageopacity="0.0"
     inkscape:pagecheckerboard="0"
     inkscape:deskcolor="#d1d1d1"
     showgrid="false"
     inkscape:zoom="5.58"
     inkscape:cx="42.293907"
     inkscape:cy="75.089606"
     inkscape:window-width="1920"
     inkscape:window-height="1017"
     inkscape:window-x="-8"
     inkscape:window-y="-8"
     inkscape:window-maximized="1"
     inkscape:current-layer="g8" />
  <g
     inkscape:groupmode="layer"
     inkscape:label="Image"
     id="g8">
    <path
       id="path443"
       style="fill:#000000;fill-opacity:1;stroke:none;stroke-width:10;stroke-linecap:round;stroke-linejoin:round;paint-order:stroke fill markers"
       d="M 75,0 A 75,75 0 0 0 0,75 75,75 0 0 0 75,150 75,75 0 0 0 150,75 75,75 0 0 0 75,0 Z m 1.736328,25 c 1.706068,0 3.413048,0.16635 4.638672,0.498047 6.882503,1.862646 11.771901,6.753547 13.755859,13.757812 0.33956,1.198815 0.450084,2.408417 0.533203,5.871094 0.0981,4.086718 0.130992,4.368965 0.525391,4.494141 0.689529,0.218849 1.896512,1.397332 2.357422,2.300781 1.811465,3.550773 -0.811659,7.493742 -4.990234,7.5 -1.406839,0.0022 -1.406048,0.0029 -1.679688,1.445313 -0.557049,2.93646 -2.254909,5.971926 -4.529297,8.097656 -1.223709,1.143715 -3.539399,2.703444 -4.292968,2.892578 -0.58706,0.147341 -0.580396,0.02893 -0.103516,1.892578 0.381479,1.490853 0.381985,1.490087 2.314453,2.267578 7.534822,3.031485 13.383863,9.228551 15.935545,16.884766 1.28478,3.854926 1.26991,3.66716 1.36133,18.453126 C 102.6468,124.99912 102.64697,125 81.925781,125 c -20.721239,0 -20.720703,-6.1e-4 -20.720703,-1.69531 0,-1.69471 6.4e-5,-1.69407 -1.484375,-1.83203 -5.874234,-0.54596 -10.817772,-4.9476 -12.025391,-10.70899 -0.475969,-2.2708 -0.291726,-9.18973 0.320313,-12.033201 2.354978,-10.94102 10.096725,-19.609997 20.515625,-22.976563 1.609858,-0.52018 1.609705,-0.520759 1.990234,-2.007812 0.47579,-1.85932 0.483454,-1.741353 -0.103515,-1.888672 -0.753569,-0.189134 -3.067307,-1.748863 -4.291016,-2.892578 -2.274388,-2.12573 -3.97421,-5.161196 -4.53125,-8.097656 -0.27365,-1.442508 -0.272839,-1.443205 -1.679687,-1.445313 -4.193216,-0.0063 -6.804,-3.945049 -4.982422,-7.515625 0.454159,-0.890223 1.66446,-2.067699 2.349609,-2.285156 0.39439,-0.125174 0.427131,-0.407505 0.525391,-4.494141 0.0847,-3.522785 0.191918,-4.673946 0.554687,-5.984375 1.883368,-6.803262 6.910762,-11.79782 13.734375,-13.644531 C 73.32328,25.16635 75.03026,25 76.736328,25 Z m 0,3.494141 c -2.549907,0 -3.118318,0.06921 -4.566406,0.552734 -2.580038,0.861486 -4.404795,1.992686 -6.345703,3.933594 -1.952198,1.952195 -3.089133,3.793979 -3.919922,6.347656 -0.43735,1.34431 -0.553211,2.197292 -0.619141,4.564453 -0.0781,2.803995 -0.06843,2.881253 0.25,2.052734 0.18191,-0.473249 0.683385,-1.22377 1.115235,-1.666015 0.431839,-0.442249 1.303517,-1.074071 1.935547,-1.404297 0.632039,-0.330229 1.148157,-0.669318 1.148437,-0.753906 2.8e-4,-0.08459 -0.192408,-0.646061 -0.429687,-1.248047 -0.23728,-0.601986 -0.431641,-1.216972 -0.431641,-1.367188 0,-0.213616 2.523134,-1.220703 3.058594,-1.220703 0.0647,0 0.330884,0.580804 0.589843,1.291016 0.71248,1.954066 2.144942,2.847158 4.00586,2.498047 1.171199,-0.219718 2.064205,-1.17324 3.121094,-3.333985 0.528629,-1.08074 1.01806,-1.964843 1.08789,-1.964843 0.0698,0 0.559261,0.884103 1.087891,1.964843 1.056889,2.160745 1.949895,3.114267 3.121093,3.333985 1.860919,0.349111 3.293371,-0.543981 4.00586,-2.498047 0.25896,-0.710212 0.560379,-1.291016 0.667969,-1.291016 0.631599,0 2.980468,0.943728 2.980468,1.197266 0,0.163279 -0.192407,0.788639 -0.429687,1.390625 -0.23728,0.601986 -0.431641,1.171657 -0.431641,1.265625 0,0.09397 0.478181,0.394287 1.0625,0.667969 1.318719,0.617655 2.699529,1.999123 3.136719,3.136718 0.31914,0.830436 0.32814,0.755186 0.25,-2.050781 -0.0659,-2.367161 -0.181791,-3.220143 -0.619141,-4.564453 -0.830789,-2.553677 -1.967723,-4.395461 -3.919921,-6.347656 -1.940909,-1.940908 -3.765666,-3.072108 -6.345704,-3.933594 -1.448088,-0.483527 -2.016488,-0.552734 -4.566406,-0.552734 z m 0.0059,15.363281 c -0.276055,-0.0011 -0.544557,0.183032 -1.082032,0.552734 -1.769348,1.217096 -3.959782,1.504164 -6.03125,0.789063 -1.174739,-0.405538 -1.174821,-0.406525 -2.849609,0.435547 -0.921139,0.463139 -1.775058,1.031176 -1.898438,1.261718 -0.300669,0.561793 -0.29564,11.406986 0.0059,13.082032 0.385279,2.138878 1.716642,4.603924 3.36914,6.240234 2.876757,2.848595 6.75823,4.048927 10.759766,3.328125 2.110738,-0.380211 4.607417,-1.71875 6.228516,-3.339844 1.621088,-1.621092 2.961587,-4.117773 3.341797,-6.228515 0.301729,-1.675046 0.306749,-12.520239 0.0059,-13.082032 -0.12338,-0.230541 -0.977299,-0.798579 -1.898438,-1.261718 -1.674798,-0.842072 -1.67487,-0.841084 -2.849609,-0.435547 -2.077278,0.717105 -4.110304,0.452273 -5.976562,-0.779297 -0.566745,-0.374002 -0.848946,-0.561425 -1.125,-0.5625 z m -3.960938,5.457031 c 0.09734,0.02648 0.137769,0.08052 0.160156,0.158203 0.0557,0.193315 0.21099,0.788384 0.34375,1.322266 0.13277,0.533882 0.288773,1.13291 0.345703,1.330078 0.0759,0.262666 -0.0806,0.39768 -0.582031,0.507812 -0.376399,0.08267 -0.589326,0.212978 -0.472656,0.289063 0.33101,0.215852 0.708984,1.03495 0.708984,1.537109 0,0.250474 -0.238087,0.693168 -0.529297,0.984375 -0.711199,0.711203 -1.691519,0.70106 -2.417968,-0.02539 -0.45066,-0.450661 -0.532917,-0.69487 -0.435547,-1.294922 0.066,-0.406525 0.102258,-0.736409 0.08008,-0.734375 -0.0222,0.0019 -0.742723,0.185119 -1.601563,0.408203 -1.561538,0.405606 -1.563042,0.406369 -1.794921,-0.488281 -0.12753,-0.492059 -0.319905,-1.230103 -0.427735,-1.638672 -0.10783,-0.408572 -0.172341,-0.765166 -0.144531,-0.792969 0.0278,-0.0278 1.575675,-0.433561 3.439453,-0.902344 2.246825,-0.56513 3.036109,-0.73959 3.328125,-0.660156 z m 7.910156,0 c 0.292023,-0.07943 1.0813,0.09503 3.328125,0.660156 1.863768,0.468783 3.411653,0.874541 3.439453,0.902344 0.0278,0.0278 -0.03673,0.384397 -0.144531,0.792969 -0.10783,0.408569 -0.300204,1.146613 -0.427734,1.638672 -0.23188,0.89465 -0.231431,0.893887 -1.792969,0.488281 -0.858849,-0.223084 -1.581316,-0.406171 -1.603516,-0.408203 -0.0222,-0.0019 0.01408,0.32785 0.08008,0.734375 0.25167,1.550867 -1.713566,2.460264 -2.853515,1.320312 -0.29121,-0.291207 -0.529297,-0.733901 -0.529297,-0.984375 0,-0.502159 0.377975,-1.321257 0.708984,-1.537109 0.11667,-0.07608 -0.09624,-0.206392 -0.472656,-0.289063 C 79.922399,52.52268 79.7679,52.387666 79.84375,52.125 c 0.0569,-0.197168 0.21098,-0.796196 0.34375,-1.330078 0.13276,-0.533882 0.28804,-1.128951 0.34375,-1.322266 0.0224,-0.07768 0.06282,-0.131725 0.160156,-0.158203 z m -20.68164,3.207031 c -1.439279,0 -2.25586,0.625202 -2.25586,1.726563 0,1.101361 0.816581,1.724609 2.25586,1.724609 1.196208,0 1.195312,0.0011 1.195312,-1.724609 0,-1.725678 8.96e-4,-1.726563 -1.195312,-1.726563 z m 33.453125,0 c -1.196209,0 -1.195313,8.85e-4 -1.195313,1.726563 0,1.725679 -8.96e-4,1.724609 1.195313,1.724609 0.982439,0 1.291713,-0.09445 1.726562,-0.529297 0.33375,-0.333752 0.529297,-0.77503 0.529297,-1.195312 0,-1.101361 -0.816581,-1.726563 -2.255859,-1.726563 z m -23.628907,6.902344 c 1.725679,0 1.72461,8.84e-4 1.72461,1.726563 0,1.725679 0.0011,1.724609 -1.72461,1.724609 -1.725678,0 -1.726562,0.0011 -1.726562,-1.724609 0,-1.725679 8.84e-4,-1.726563 1.726562,-1.726563 z m 13.804688,0 c 1.725678,0 1.726562,8.84e-4 1.726562,1.726563 0,1.725679 -8.84e-4,1.724609 -1.726562,1.724609 -1.725678,0 -1.72461,0.0011 -1.72461,-1.724609 0,-1.725679 -0.0011,-1.726563 1.72461,-1.726563 z m -6.902344,3.550781 c 0.895112,0 1.790158,0.203834 2.623047,0.611329 0.655159,0.32054 1.371887,0.780431 1.591797,1.023437 0.394159,0.435533 0.381583,0.460219 -0.822266,1.664063 -1.221249,1.221249 -1.221297,1.221126 -1.785156,0.691406 -0.773439,-0.726611 -2.41725,-0.750187 -3.167969,-0.04492 -0.284139,0.266941 -0.561457,0.486328 -0.617187,0.486328 -0.0557,0 -0.626929,-0.530979 -1.267578,-1.179688 -1.145449,-1.159858 -1.156525,-1.187203 -0.765625,-1.61914 0.218629,-0.24158 0.932731,-0.700944 1.58789,-1.021484 0.832889,-0.407495 1.727936,-0.611329 2.623047,-0.611329 z m 0,10.146485 c -2.526507,0 -2.526069,7.55e-4 -2.949219,1.738281 -0.394139,1.618369 -0.400997,1.804423 -0.08594,2.722656 0.394399,1.149594 0.742433,1.607967 1.632812,2.152344 0.7719,0.471942 1.851578,0.510803 2.654297,0.0957 0.862949,-0.446249 1.404054,-1.125983 1.783203,-2.240234 0.3151,-0.925997 0.308252,-1.111733 -0.08594,-2.730469 -0.42315,-1.737526 -0.422701,-1.738281 -2.949219,-1.738281 z m -6.509766,5.716797 c -0.436909,0 -3.276905,1.200702 -5.058593,2.138671 -6.940843,3.653994 -11.947008,10.279153 -13.666016,18.083985 -0.391949,1.779603 -0.391585,1.779293 4.65625,1.779293 5.047835,0 5.046875,1e-4 5.046875,-1.796871 0,-1.485679 -0.0923,-1.9807 -0.535156,-2.855469 -0.53566,-1.058059 -0.535562,-1.057761 0.585937,-2.193359 0.61682,-0.62458 1.186919,-1.134766 1.267579,-1.134766 0.322809,0 1.508679,2.164519 1.755859,3.205078 0.14477,0.60944 0.326414,1.109375 0.402344,1.109375 0.0759,0 1.561996,-1.898952 3.302734,-4.21875 3.402557,-4.534389 4.148244,-5.220399 6.201172,-5.71289 2.814717,-0.675239 5.673419,0.714657 7.111328,3.458984 0.42726,0.815458 0.50659,1.281191 0.5,2.912109 -0.005,1.301009 -0.13842,2.333847 -0.40625,3.128907 -0.21981,0.652529 -2.370999,5.116932 -4.779297,9.921872 -3.172367,6.32937 -4.678264,9.102 -5.464844,10.06446 -1.205778,1.47538 -3.742576,3.29809 -5.421875,3.89453 -0.587569,0.20868 -1.068359,0.50222 -1.068359,0.65234 0,0.21685 2.481035,0.27344 12.072266,0.27344 12.071598,0 12.070732,-8.7e-4 12.132812,-12.67383 0.0621,-12.672947 0.06277,-12.672966 0.640625,-13.859375 0.31784,-0.652519 0.776238,-1.42801 1.017578,-1.724609 0.4388,-0.53927 0.438661,-0.540125 1.63086,0.646484 1.192198,1.186609 1.191436,1.187078 0.654297,2.248047 -0.44448,0.877969 -0.53711,1.370413 -0.53711,2.857422 0,1.796971 -1.85e-4,1.796871 3.451172,1.796871 3.963766,0 3.606293,0.27818 3.220703,-2.494137 -0.925189,-6.651863 -4.833429,-12.963785 -10.339844,-16.703125 -1.684698,-1.144052 -5.451578,-2.946046 -5.548828,-2.654297 -0.0398,0.119504 -0.385948,0.737251 -0.767578,1.373047 -2.688467,4.479067 -9.129537,4.154205 -11.427734,-0.576172 -0.25298,-0.520708 -0.536617,-0.947265 -0.628907,-0.947265 z m 5.09961,11.714843 c -0.564755,0.03463 -1.100962,0.205379 -1.435547,0.501954 -0.25007,0.22165 -3.644383,4.649328 -7.542969,9.839842 -3.898576,5.19053 -7.165549,9.4375 -7.261718,9.4375 -0.14657,0 -2.223513,-1.46765 -2.576172,-1.82031 -0.0611,-0.0611 0.584144,-1.0359 1.433593,-2.16602 1.544459,-2.05475 1.544809,-2.05468 -2.773437,-2.05468 -4.318256,0 -4.318359,10e-4 -4.31836,2.58984 0,2.58852 -0.0011,2.58789 1.72461,2.58789 1.725678,0 1.726562,8.8e-4 1.726562,1.72656 0,1.72568 -10e-4,1.72461 -1.091796,1.72461 -1.090739,0 -1.090852,6.9e-4 -0.701172,0.66992 0.214329,0.36808 0.936266,1.1766 1.603515,1.79688 2.443718,2.27169 5.605072,3.15254 8.861328,2.4707 1.780639,-0.37285 3.917564,-1.59901 5.164063,-2.96289 0.910939,-0.99671 1.867585,-2.74735 5.613281,-10.26953 4.175846,-8.386032 4.525096,-9.174174 4.628906,-10.470703 0.13447,-1.679438 -0.292483,-2.651216 -1.445312,-3.287109 -0.450415,-0.248446 -1.044621,-0.349078 -1.609375,-0.314454 z m -2.041016,6.835938 c 1.725679,0 1.72461,8.84e-4 1.72461,1.726562 0,1.725676 0.0011,1.724606 -1.72461,1.724606 -1.725678,0 -1.726562,0.001 -1.726562,-1.724606 0,-1.725678 8.84e-4,-1.726562 1.726562,-1.726562 z m 22.433594,6.902348 c -3.451357,0 -3.451172,7e-4 -3.451172,5.17773 0,5.17703 8.84e-4,5.17773 1.726563,5.17773 1.725678,0 1.724609,-10e-4 1.724609,1.72461 0,1.72568 0.0011,1.72657 -1.724609,1.72657 -1.725679,0 -1.726563,-0.001 -1.726563,1.72461 0,1.72567 -1.85e-4,1.72656 3.451172,1.72656 3.451357,0 3.451172,-7e-4 3.451172,-5.17774 0,-5.17703 0.0011,-5.17578 -1.72461,-5.17578 -1.725678,0 -1.726562,-8.8e-4 -1.726562,-1.72656 0,-1.72568 8.84e-4,-1.72461 1.726562,-1.72461 1.725679,0 1.72461,-8.8e-4 1.72461,-1.72656 0,-1.72568 1.85e-4,-1.72656 -3.451172,-1.72656 z m -29.335938,3.45312 c 1.725679,0 1.72461,-0.001 1.72461,1.72461 0,1.72568 0.0011,1.72656 -1.72461,1.72656 -1.725678,0 -1.726562,-8.8e-4 -1.726562,-1.72656 0,-1.72568 8.84e-4,-1.72461 1.726562,-1.72461 z m -6.902343,5.17578 c 1.725678,0 1.724609,8.9e-4 1.724609,1.72656 0,1.72568 0.0011,1.72461 -1.724609,1.72461 -1.725679,0 -1.726563,0.001 -1.726563,-1.72461 0,-1.72567 8.84e-4,-1.72656 1.726563,-1.72656 z" />
  </g>
</svg>
