<?xml version="1.0" encoding="UTF-8" standalone="no"?>
<!-- Created with Inkscape (http://www.inkscape.org/) -->

<svg
   version="1.1"
   id="svg2"
   width="150"
   height="150"
   viewBox="0 0 150 150"
   sodipodi:docname="nutrizione-sportiva.svg"
   inkscape:export-filename="Users\antob\Desktop\SITO 🔧 VALE\ICONE\round icons\sezione 2\nutrizione-sportiva.png"
   inkscape:export-xdpi="96"
   inkscape:export-ydpi="96"
   inkscape:version="1.2.2 (732a01da63, 2022-12-09)"
   xmlns:inkscape="http://www.inkscape.org/namespaces/inkscape"
   xmlns:sodipodi="http://sodipodi.sourceforge.net/DTD/sodipodi-0.dtd"
   xmlns="http://www.w3.org/2000/svg"
   xmlns:svg="http://www.w3.org/2000/svg">
  <defs
     id="defs6" />
  <sodipodi:namedview
     id="namedview4"
     pagecolor="#ffffff"
     bordercolor="#000000"
     borderopacity="0.25"
     inkscape:showpageshadow="2"
     inkscape:pageopacity="0.0"
     inkscape:pagecheckerboard="0"
     inkscape:deskcolor="#d1d1d1"
     showgrid="false"
     inkscape:zoom="5.58"
     inkscape:cx="42.293907"
     inkscape:cy="75.089606"
     inkscape:window-width="1920"
     inkscape:window-height="1017"
     inkscape:window-x="-8"
     inkscape:window-y="-8"
     inkscape:window-maximized="1"
     inkscape:current-layer="g8" />
  <g
     inkscape:groupmode="layer"
     inkscape:label="Image"
     id="g8">
    <path
       id="path347"
       style="fill:#000000;fill-opacity:1;stroke:none;stroke-width:10;stroke-linecap:round;stroke-linejoin:round;paint-order:stroke fill markers"
       d="M 75,0 A 75,75 0 0 0 0,75 75,75 0 0 0 75,150 75,75 0 0 0 150,75 75,75 0 0 0 75,0 Z M 53.457031,45.861328 h 7.857422 c 8.373481,0 8.701816,0.03574 9.201172,0.96875 0.265793,0.49665 0.255814,1.438256 -0.02148,2.046875 -0.380262,0.834579 -1.257295,1.09375 -3.6875,1.09375 h -2.1875 l 0.136718,0.621094 c 0.07481,0.3406 0.326663,1.287096 0.560547,2.103515 l 0.425782,1.484376 11.292968,0.05078 c 6.211458,0.0278 11.294922,0.0038 11.294922,-0.05273 0,-0.0561 -0.617685,-1.331989 -1.371094,-2.835937 -1.438342,-2.871207 -1.657568,-3.808044 -1.083984,-4.626953 0.588363,-0.839999 0.974934,-0.87245 9.705078,-0.8125 l 8.306638,0.05859 1,0.52539 c 1.26934,0.669689 2.68952,2.243219 3.0918,3.423828 0.76649,2.249558 0.17865,4.872128 -1.45899,6.509766 -1.36079,1.360789 -2.56426,1.771484 -5.19922,1.771484 -2.018633,0 -2.074894,-0.01235 -2.634759,-0.572265 -0.749457,-0.74945 -0.792064,-1.890601 -0.101563,-2.69336 0.436103,-0.506989 0.605959,-0.554439 2.363282,-0.667969 2.15045,-0.138929 2.79211,-0.454601 3.1582,-1.55664 0.28589,-0.860619 0.0384,-1.725003 -0.65625,-2.289063 -0.53454,-0.434009 -0.6136,-0.438493 -6.558591,-0.439453 l -6.017578,-0.002 4.488281,8.976563 4.488281,8.976562 1.626947,-0.503906 c 1.4643,-0.45392 1.94931,-0.504949 4.85547,-0.511719 2.4876,-0.006 3.51485,0.07067 4.46875,0.333985 7.17495,1.980298 12.26001,7.219763 13.86328,14.285156 0.48747,2.148208 0.43759,6.038681 -0.10547,8.255859 -0.50449,2.059738 -1.82452,4.946471 -3.03515,6.636719 -5.77981,8.069555 -17.14455,10.140025 -25.486327,4.644525 -1.786258,-1.176768 -4.008211,-3.328167 -5.15039,-4.988275 -1.033944,-1.502779 -2.318638,-4.412201 -2.779297,-6.292969 -0.602058,-2.458067 -0.608656,-6.15414 -0.01367,-8.554687 1.066816,-4.304286 3.43644,-7.941371 6.933594,-10.642578 l 1.123047,-0.867188 -2.259766,-4.513672 c -1.242075,-2.482357 -2.295587,-4.475897 -2.341797,-4.429687 -0.04621,0.0462 -3.20342,5.627367 -7.017578,12.40039 -6.435254,11.427469 -6.915258,12.341889 -6.650391,12.705078 0.855301,1.172789 1.149274,2.149988 1.148438,3.816407 -7.83e-4,1.424148 -0.07625,1.80634 -0.525391,2.662109 -0.665322,1.267669 -2.237658,2.688957 -3.419922,3.091797 -1.287091,0.438559 -3.141554,0.399376 -4.464843,-0.0957 -1.389266,-0.51979 -2.862005,-1.953592 -3.337891,-3.25 -0.18991,-0.51735 -0.441287,-1.038263 -0.558594,-1.158203 -0.117308,-0.11995 -1.005941,-0.322979 -1.974609,-0.449219 -0.968668,-0.12624 -2.029747,-0.276365 -2.357422,-0.333985 -0.578908,-0.101809 -0.605059,-0.07202 -0.949219,1.035157 -0.975584,3.138557 -3.250114,6.516058 -5.832031,8.660156 -1.743008,1.447469 -5.15596,3.202509 -7.298828,3.751959 -2.026168,0.51952 -5.909037,0.66334 -7.859375,0.29101 -5.831464,-1.11323 -10.537544,-4.574915 -13.269531,-9.75586 -3.748007,-7.107733 -2.595376,-15.570644 2.917968,-21.423828 2.519968,-2.675287 5.25066,-4.337205 8.822266,-5.371094 1.361819,-0.394209 1.973925,-0.451936 4.789063,-0.441406 2.931547,0.011 3.388293,0.06179 4.951171,0.541016 0.946779,0.29033 2.232213,0.785953 2.857422,1.101562 l 1.136719,0.574219 4.644531,-6.654297 4.642578,-6.654297 -0.759765,-2.875 L 60.425781,50.070312 57,49.970703 c -3.723076,-0.10635 -4.29567,-0.264343 -4.6875,-1.294922 -0.33952,-0.892999 -0.213904,-1.456018 0.478516,-2.148437 z M 77.46875,58.191406 c -5.865822,0 -10.666016,0.03964 -10.666016,0.08984 0,0.117 6.440771,24.578428 6.5625,24.923828 0.292047,0.828669 1.085298,-0.430587 7.765625,-12.296875 3.84689,-6.833243 6.995996,-12.489592 6.998047,-12.570312 0.0021,-0.0807 -4.794334,-0.146485 -10.660156,-0.146485 z m -14.162109,3.09375 c -0.06751,-0.0735 -1.726049,2.165162 -3.685547,4.97461 l -3.564453,5.109375 1.158203,1.236328 c 3.097437,3.311166 4.945197,7.526198 5.177734,11.808593 l 0.08984,1.66211 2.111328,0.318359 c 2.636313,0.3975 2.992188,0.416419 2.992188,0.16211 0,-0.11224 0.396525,-0.626732 0.880859,-1.144532 0.484333,-0.517789 0.880859,-1.046588 0.880859,-1.173828 0,-0.368629 -5.904994,-22.804975 -6.041015,-22.953125 z m -19.746094,9.566406 c -1.192903,0.01534 -2.407719,0.124203 -3.220703,0.320313 -5.001925,1.206589 -8.969136,4.934964 -10.652344,10.011719 -0.4491,1.354518 -0.520846,1.908277 -0.535156,4.109375 -0.0193,2.965997 0.259745,4.240934 1.458984,6.669922 1.890178,3.828446 5.272139,6.551981 9.578125,7.71289 2.120328,0.571649 5.718454,0.452179 7.925781,-0.263672 0.86104,-0.279249 2.138302,-0.840334 2.837891,-1.246093 1.723928,-0.999859 4.444717,-3.727236 5.353516,-5.365235 0.769239,-1.386478 1.410041,-3.058719 1.238281,-3.230469 -0.0574,-0.0574 -3.35171,-0.569692 -7.322266,-1.138671 -3.970566,-0.56897 -7.406916,-1.150679 -7.634765,-1.292969 -0.52466,-0.32765 -0.833985,-0.999744 -0.833985,-1.814453 0,-0.51159 0.824538,-1.81009 4.208985,-6.640625 2.314037,-3.302767 4.207031,-6.085624 4.207031,-6.183594 0,-0.22296 -2.092709,-1.058963 -3.523438,-1.408203 -0.722509,-0.17637 -1.893035,-0.255574 -3.085937,-0.240235 z m 62.962893,0.0078 c -1.8978,-0.007 -4.69141,0.502439 -4.69141,0.855469 0,0.0967 1.45263,3.082296 3.22852,6.632812 3.38128,6.760163 3.57524,7.313177 2.91406,8.322266 -0.46689,0.712559 -1.57587,0.988314 -2.46875,0.615234 -0.67522,-0.282119 -0.88129,-0.635135 -4.10938,-7.074218 L 98,73.435547 97.070312,74.144531 c -2.099188,1.602859 -4.044529,4.582556 -4.857421,7.439453 -0.572623,2.012458 -0.616993,5.591133 -0.0918,7.525391 1.478799,5.446365 5.893193,9.580244 11.486329,10.757813 1.50183,0.316192 5.38606,0.10355 6.9336,-0.38086 5.00153,-1.565598 8.77027,-5.589815 10.09765,-10.78125 0.38647,-1.511478 0.33414,-5.237349 -0.0957,-6.835937 -1.73854,-6.466014 -7.49455,-10.986816 -14.01953,-11.009766 z m -52.787112,3.972656 c -0.152,0.007 -6.040047,8.387037 -6.216797,8.847657 -0.0839,0.218639 0.864598,0.412833 4.746094,0.970703 2.668137,0.383479 5.150495,0.70672 5.515625,0.71875 l 0.662109,0.02344 -0.123047,-1.189453 c -0.304239,-2.910787 -1.528006,-5.846851 -3.365234,-8.074219 -0.591919,-0.717609 -1.14039,-1.300625 -1.21875,-1.296875 z" />
  </g>
</svg>
