<?xml version="1.0" encoding="UTF-8" standalone="no"?>
<!-- Created with Inkscape (http://www.inkscape.org/) -->

<svg
   version="1.1"
   id="svg2"
   width="150"
   height="150"
   viewBox="0 0 150 150"
   sodipodi:docname="nutrizione-clinica.svg"
   inkscape:export-filename="Users\antob\Desktop\SITO 🔧 VALE\ICONE\round icons\sezione 2\nutrizione-clinica.png"
   inkscape:export-xdpi="96"
   inkscape:export-ydpi="96"
   inkscape:version="1.2.2 (732a01da63, 2022-12-09)"
   xmlns:inkscape="http://www.inkscape.org/namespaces/inkscape"
   xmlns:sodipodi="http://sodipodi.sourceforge.net/DTD/sodipodi-0.dtd"
   xmlns="http://www.w3.org/2000/svg"
   xmlns:svg="http://www.w3.org/2000/svg">
  <defs
     id="defs6" />
  <sodipodi:namedview
     id="namedview4"
     pagecolor="#ffffff"
     bordercolor="#000000"
     borderopacity="0.25"
     inkscape:showpageshadow="2"
     inkscape:pageopacity="0.0"
     inkscape:pagecheckerboard="0"
     inkscape:deskcolor="#d1d1d1"
     showgrid="false"
     inkscape:zoom="5.58"
     inkscape:cx="42.293907"
     inkscape:cy="75.089606"
     inkscape:window-width="1920"
     inkscape:window-height="1017"
     inkscape:window-x="-8"
     inkscape:window-y="-8"
     inkscape:window-maximized="1"
     inkscape:current-layer="g8" />
  <g
     inkscape:groupmode="layer"
     inkscape:label="Image"
     id="g8">
    <path
       id="path347"
       style="fill:#000000;stroke-width:10;stroke-linecap:round;stroke-linejoin:round;paint-order:stroke fill markers;fill-opacity:1"
       d="M 75,0 A 75,75 0 0 0 0,75 75,75 0 0 0 75,150 75,75 0 0 0 150,75 75,75 0 0 0 75,0 Z M 55.673828,24.130859 c 1.16981,-0.05952 2.75199,0.16259 5.115234,0.648438 3.202862,0.65846 5.770561,0.679871 9.632813,0.08203 3.238079,-0.501225 4.851396,-0.539698 12.992187,-0.318359 3.804041,0.103428 6.302771,0.257825 7.121094,0.439453 1.30197,0.288973 4.321883,1.625466 5.867188,2.597656 0.880459,0.55392 0.880516,0.554442 11.917966,0.6875 11.91378,0.143622 11.76867,0.129557 12.03321,1.183594 0.17702,0.705266 -0.0559,1.414986 -0.57618,1.755859 -0.40007,0.262136 -1.81901,0.279819 -11.96289,0.148438 C 96.306051,31.206414 96.307024,31.206287 94.451172,30.109374 93.430451,29.506072 91.980625,28.762169 91.228516,28.45703 89.877613,27.908955 89.788415,27.900453 83.902344,27.710937 75.247301,27.432265 73.664624,27.461816 70.226562,27.972655 66.459496,28.53238 63.348674,28.453588 59.677734,27.70703 c -2.664827,-0.541944 -4.28331,-0.634658 -4.648437,-0.269531 -0.715574,0.715575 0.09689,2.441063 1.787109,3.794922 2.624068,2.101863 4.824305,2.799005 8.822266,2.794922 4.837279,-0.0049 6.695658,0.435295 9.179687,2.175781 1.593051,1.116204 2.246094,1.870243 2.246094,2.591797 0,1.58358 -1.570129,2.12752 -2.783203,0.964844 -0.942076,-0.90294 -2.683885,-1.991438 -3.40625,-2.126954 -0.542782,-0.101826 -1.065385,0.120947 -3.621094,1.542969 -1.642042,0.913651 -4.743693,2.578889 -6.892578,3.699219 -4.399104,2.293488 -13.328379,7.292615 -19.046875,10.664062 -5.391331,3.178564 -5.073334,2.94392 -5.076172,3.759766 -0.0038,1.069193 0.36454,1.436003 1.314453,1.308594 2.457964,-0.329682 22.109754,-9.374201 27.066407,-12.457031 4.541285,-2.824489 7.896649,-3.289192 10.136718,-1.404297 0.791217,0.665763 1.322769,1.864798 1.328125,2.996094 0.0041,0.870645 0.02857,0.91032 0.652344,1.027343 0.879328,0.164962 2.313558,1.100545 2.935547,1.916016 0.591437,0.775415 1.105469,2.116664 1.105469,2.888672 0,0.471998 0.08997,0.551722 0.755859,0.658203 1.15345,0.184444 2.53901,1.230237 3.203125,2.419922 1.046312,1.87434 0.715991,3.929267 -0.939453,5.863281 -0.688647,0.804529 -0.687878,0.805548 1.222656,0.15625 10.251292,-3.483913 12.9784,-5.105963 20.310549,-12.076172 1.79787,-1.709124 1.7981,-1.708666 2.83398,-1.707031 0.56982,9.38e-4 2.88235,0.175582 5.13867,0.388672 2.25634,0.213089 4.52631,0.387772 5.04493,0.388672 1.72431,0.003 2.67776,1.576142 1.60546,2.648437 -0.5957,0.595717 -0.7258,0.596087 -6.89453,0.02344 -4.7372,-0.439769 -4.73802,-0.439781 -5.4707,0.320312 -1.34709,1.397487 -5.32185,4.825689 -7.32227,6.314453 -3.194596,2.377498 -6.400123,3.841379 -14.898432,6.804688 -2.511953,0.875904 -5.515822,2.094145 -7.228516,2.93164 -3.862535,1.888746 -4.508357,2.062085 -5.957031,1.605469 -0.839883,-0.264728 -2.546081,-1.929052 -3.109375,-3.033203 -0.41684,-0.81707 -0.416716,-0.815531 -1.144532,-0.447266 -1.537331,0.77787 -3.592599,1.392579 -4.654296,1.392578 -2.331077,0 -4.201802,-1.855833 -4.972657,-4.933593 -0.232407,-0.927928 -0.231496,-0.927735 -1.484375,-0.927735 -1.614498,0 -2.337242,-0.316689 -3.349609,-1.466796 -0.795019,-0.903191 -2.189453,-3.398923 -2.189453,-3.919922 0,-0.140389 -0.07538,-0.302152 -0.167969,-0.359375 -0.09259,-0.05722 -1.396353,0.454748 -2.898437,1.136718 -3.598856,1.633939 -7.239651,3.104057 -9.009766,3.638672 -3.520215,1.063187 -5.835687,-0.406385 -6.056641,-3.84375 -0.103587,-1.611483 0.209806,-2.463739 1.201172,-3.263672 1.844812,-1.488574 17.517152,-10.544561 23.525391,-13.59375 1.048079,-0.531902 2.94192,-1.531799 4.208984,-2.220703 2.303752,-1.252551 2.303549,-1.251233 0.976563,-1.386718 -1.921032,-0.196139 -2.881178,-0.462531 -4.714844,-1.308594 -1.929359,-0.890218 -3.729696,-2.13415 -4.855469,-3.355469 -2.235173,-2.424877 -2.422912,-5.464934 -0.449219,-7.248047 0.710919,-0.642272 1.466909,-0.983445 2.636719,-1.042969 z m 15.34961,22.642579 c -1.328495,0.0961 -3.101319,0.90531 -6.03711,2.753906 -1.109914,0.698885 -4.031223,2.226093 -6.492187,3.392578 -3.628309,1.7198 -4.476219,2.194899 -4.478516,2.511719 -0.004,0.546981 1.00236,2.608378 1.644531,3.36914 0.598279,0.708767 0.975998,0.766498 2.322266,0.361328 0.954924,-0.287387 3.082194,-1.541067 7.751953,-4.572265 3.287092,-2.133693 5.061099,-3.534071 6.214844,-4.902344 1.035944,-1.228569 1.215608,-1.966032 0.621093,-2.560547 -0.370178,-0.370179 -0.594606,-0.422396 -1.546874,-0.353515 z m 4.529296,5.011718 c -0.824193,0.0057 -1.812093,0.584578 -3.083984,1.767578 -1.225003,1.139388 -3.624811,2.787394 -8.558594,5.876954 -2.898422,1.815005 -2.899096,1.81439 -2.767578,2.521484 0.210218,1.130236 0.892842,2.544932 1.431641,2.96875 0.671234,0.527994 1.182451,0.402992 4.039062,-0.988281 2.696935,-1.313506 5.454831,-3.410496 8.0625,-6.13086 2.827894,-2.950104 3.362488,-4.26056 2.208985,-5.414062 -0.402204,-0.402204 -0.837516,-0.605001 -1.332032,-0.601563 z m 4.751954,5.394532 c -0.710499,-0.02227 -1.344437,0.478017 -2.404297,1.748046 -1.237687,1.483116 -3.413835,3.498261 -5.384766,4.986328 -0.613764,0.463398 -1.115234,0.879631 -1.115234,0.925782 0,0.04615 0.141258,0.36708 0.314453,0.710937 0.435758,0.865145 1.449237,1.894531 1.865234,1.894531 0.190161,0 1.159159,-0.680978 2.152344,-1.513671 2.64932,-2.221204 6.117055,-5.720415 6.355469,-6.41211 0.302574,-0.877852 -0.12692,-1.775308 -1.029297,-2.152343 -0.272895,-0.114023 -0.517074,-0.180077 -0.753906,-0.1875 z m -44.265626,7.167968 c 0.376807,0.03045 0.559183,0.209681 1.03125,0.791016 1.516324,1.867285 3.787431,6.121087 4.800782,8.992187 1.328683,3.764535 1.545819,7.255519 0.582031,9.333985 -1.03443,2.230807 -3.108434,3.837263 -5.521484,4.279297 -1.270111,0.232663 -1.182959,0.232943 -2.496094,0.01172 -4.215007,-0.710125 -6.804155,-4.694283 -6.035156,-9.291015 0.549855,-3.286797 3.103523,-9.23668 5.441406,-12.679688 0.874105,-1.287297 0.976877,-1.372169 1.738281,-1.427734 0.186488,-0.01361 0.333382,-0.01992 0.458984,-0.0098 z m -0.251953,4.529297 c -0.200106,-0.02133 -0.43446,0.404491 -1.058593,1.539063 -1.961081,3.564928 -3.374336,7.636625 -3.375,9.726562 -7.23e-4,2.251179 1.181878,3.855972 3.318359,4.50586 0.75266,0.228947 1.213449,0.207572 2.267578,-0.105469 1.100093,-0.326693 2.069441,-1.176008 2.658203,-2.330078 0.623942,-1.223026 0.427277,-3.871465 -0.488281,-6.591797 C 38.44577,73.649371 37.198084,70.968954 36.1875,69.341797 36.014949,69.063969 35.907173,68.88975 35.787109,68.876953 Z m 44.107422,9.285156 c 11.601049,-2.3e-4 23.203199,0.106169 24.226559,0.320313 4.3683,0.91399 7.97844,4.321075 9.21289,8.693359 0.33107,1.172631 0.35938,2.240478 0.35938,13.966799 0,11.72631 -0.0283,12.79612 -0.35938,13.96875 -1.11791,3.9595 -3.94854,6.95731 -7.88867,8.35156 -1.51955,0.5377 -1.52048,0.53665 -25.060544,0.57227 -19.501167,0.0295 -23.752452,-0.0108 -24.783204,-0.23633 -3.354197,-0.73402 -6.530046,-3.16346 -8.029296,-6.14063 -1.077516,-2.13969 -1.234065,-2.85131 -1.355469,-6.16015 -0.114682,-3.12566 -0.115919,-3.12746 -12.556641,-3.17774 -12.440721,-0.0503 -12.439998,-0.0492 -12.84375,-0.5625 -0.388635,-0.49408 -0.404297,-0.74395 -0.404297,-6.65039 0,-6.136166 9.67e-4,-6.13573 0.480469,-6.615232 0.479505,-0.479504 0.478772,-0.478516 12.892578,-0.478516 12.413809,0 12.414063,-0.0013 12.414063,-2.628906 0,-3.077638 0.196316,-4.177884 1.097656,-6.144532 1.563454,-3.411319 4.773197,-6.001194 8.376953,-6.757812 1.020045,-0.214162 12.619654,-0.320083 24.220703,-0.320313 z m 0.166016,3.152344 c -16.080306,0 -23.009113,0.06504 -23.742188,0.220703 -2.186845,0.464367 -4.422687,2.005267 -5.625,3.878906 -1.061727,1.654562 -1.36914,3.000057 -1.36914,5.986329 0,2.62626 -4.58e-4,2.625548 2.197265,2.570312 2.197723,-0.05524 2.198513,-0.05459 2.257813,-0.976562 0.100562,-1.563557 1.399568,-2.205811 2.517578,-1.244141 0.548114,0.471468 0.548828,0.470176 0.548828,9.39258 0,8.9224 -7.14e-4,8.92306 -0.548828,9.39453 -1.11801,0.96167 -2.417016,0.31941 -2.517578,-1.24414 -0.0593,-0.92199 -0.06009,-0.92133 -2.257813,-0.97656 -2.197723,-0.0553 -2.197265,-0.056 -2.197265,2.57031 0,2.02885 0.08517,2.89775 0.371093,3.8164 0.927264,2.9793 3.317316,5.22667 6.369141,5.99024 0.752055,0.18817 6.23575,0.24893 23.839844,0.26172 19.948197,0.0145 23.010603,-0.022 24.013673,-0.2832 2.97169,-0.77402 5.24323,-2.92518 6.28125,-5.95118 0.34616,-1.00911 0.36914,-1.83571 0.36914,-13.57812 0,-12.502608 -7.2e-4,-12.501691 -0.4668,-13.771486 -1.08283,-2.950166 -3.28764,-5.001561 -6.18359,-5.75586 -1.00102,-0.260732 -4.086116,-0.300781 -23.857423,-0.300781 z m 10.386719,5.470703 c 13.555264,0 13.553444,-7.65e-4 14.101564,0.470703 0.54811,0.471468 0.54883,0.471194 0.54883,13.886721 0,13.41551 -7.2e-4,13.41719 -0.54883,13.88867 -0.54812,0.47146 -0.5463,0.4707 -14.101564,0.4707 -13.55526,0 -13.5554,7.7e-4 -14.103516,-0.4707 -0.548114,-0.47147 -0.548828,-0.47316 -0.548828,-13.88867 0,-13.415527 7.14e-4,-13.415253 0.548828,-13.886721 0.548116,-0.471468 0.548256,-0.470703 14.103516,-0.470703 z m -24.222657,0.01758 c 0.957959,-0.02899 1.947296,0.191108 2.88086,0.714844 2.661142,1.492923 3.647145,4.704106 2.283203,7.433594 -0.63893,1.278614 -1.317563,1.960528 -2.603516,2.617187 -1.080741,0.551872 -3.039708,0.652718 -4.289062,0.220703 -2.182216,-0.754587 -3.70544,-2.941409 -3.720703,-5.339843 -0.02047,-3.217577 2.575341,-5.559501 5.449218,-5.646485 z m 24.222657,3.107422 c -11.623516,0 -11.625,-3.89e-4 -11.625,11.232422 0,11.23281 0.0015,11.23437 11.625,11.23437 11.623514,0 11.623044,-0.002 11.623044,-11.23437 0,-11.232811 4.7e-4,-11.232422 -11.623044,-11.232422 z m -24.335938,0.01758 c -0.802114,0.06162 -1.576824,0.506241 -2.003906,1.40625 -0.419612,0.884266 -0.413391,1.449953 0.0293,2.275391 0.643433,1.199751 2.172942,1.699265 3.347656,1.091797 0.926378,-0.479049 1.375,-1.214821 1.375,-2.251953 0,-1.66727 -1.41119,-2.624176 -2.748047,-2.521485 z m 24.298828,4.292969 c 0.368794,0.01882 0.730515,0.175827 1.021485,0.466797 0.470015,0.470014 0.480468,0.543636 0.480468,3.675781 0,2.945685 -0.03124,3.228915 -0.398437,3.623045 -0.219073,0.23515 -0.475841,0.42773 -0.570313,0.42773 -0.09447,0 -0.288547,0.0369 -0.43164,0.084 -0.143094,0.047 -0.45397,0.009 -0.689453,-0.0859 -0.949518,-0.38284 -1.069309,-0.89684 -1.001954,-4.300778 0.06027,-3.045821 0.08042,-3.169402 0.525391,-3.529297 0.321139,-0.25974 0.695659,-0.380143 1.064453,-0.361328 z m -6.458984,0.03711 c 0.710055,-0.172359 1.392895,0.19308 1.701172,1.003907 0.122918,0.323298 0.203125,2.69229 0.203125,6.001946 0,5.71555 -0.0899,6.38683 -0.888672,6.69336 -0.648964,0.24903 -1.395912,0.11336 -1.8125,-0.33008 -0.41732,-0.44422 -0.423828,-0.55967 -0.423828,-6.53125 0,-6.078012 -0.0011,-6.077528 0.513672,-6.482414 0.22964,-0.180635 0.470346,-0.298015 0.707031,-0.355469 z m 12.30664,0 c 0.710054,-0.172359 1.392893,0.19308 1.701172,1.003907 0.12291,0.323298 0.203125,2.69229 0.203125,6.001946 0,5.71555 -0.08798,6.38683 -0.886718,6.69336 -0.64897,0.24903 -1.395911,0.11336 -1.8125,-0.33008 -0.417315,-0.44422 -0.425782,-0.55967 -0.425782,-6.53125 0,-6.078012 8.92e-4,-6.077528 0.515625,-6.482414 0.22964,-0.180635 0.468394,-0.298015 0.705078,-0.355469 z m -57.677734,2.88086 c -15.042196,0 -15.042969,-8.37e-4 -15.042969,4.003903 0,4.00473 7.73e-4,4.00586 15.042969,4.00586 15.042197,0 15.042969,-10e-4 15.042969,-4.00586 0,-4.00474 -7.72e-4,-4.003903 -15.042969,-4.003903 z m -2.845703,2.539062 c 2.241702,0 2.413466,0.02838 2.8125,0.453121 0.536029,0.57057 0.546848,1.49107 0.02539,2.05078 -0.368224,0.39524 -0.580162,0.42773 -2.810547,0.42774 -2.066218,0 -2.478636,-0.0542 -2.865235,-0.36719 -0.627261,-0.50793 -0.627261,-1.69128 0,-2.19921 0.385995,-0.312569 0.797509,-0.365241 2.837892,-0.365241 z M 66.8125,104.2207 c 2.197868,0.17642 4.203138,1.66844 4.869141,3.62305 1.053962,3.09321 -0.613415,6.45866 -3.646485,7.35937 -1.064291,0.31607 -2.276078,0.3613 -3.082031,0.11524 -4.382296,-1.33786 -5.656614,-6.66717 -2.3125,-9.67383 1.233686,-1.10918 2.540139,-1.55481 4.171875,-1.42383 z m -0.701172,3.09375 c -0.802114,0.0616 -1.576824,0.50625 -2.003906,1.40625 -0.419612,0.88427 -0.413391,1.44995 0.0293,2.27539 0.643433,1.19975 2.172942,1.69927 3.347656,1.0918 0.926378,-0.47905 1.375,-1.21481 1.375,-2.25195 0,-1.66727 -1.41119,-2.62418 -2.748047,-2.52149 z" />
  </g>
</svg>
