<?xml version="1.0" encoding="UTF-8" standalone="no"?>
<svg
   viewBox="0 0 24 24"
   version="1.1"
   id="svg4"
   sodipodi:docname="instagram.svg"
   width="24"
   height="24"
   inkscape:version="1.2.2 (732a01da63, 2022-12-09)"
   xmlns:inkscape="http://www.inkscape.org/namespaces/inkscape"
   xmlns:sodipodi="http://sodipodi.sourceforge.net/DTD/sodipodi-0.dtd"
   xmlns="http://www.w3.org/2000/svg"
   xmlns:svg="http://www.w3.org/2000/svg">
  <defs
     id="defs8" />
  <sodipodi:namedview
     id="namedview6"
     pagecolor="#ffffff"
     bordercolor="#000000"
     borderopacity="0.25"
     inkscape:showpageshadow="2"
     inkscape:pageopacity="0.0"
     inkscape:pagecheckerboard="0"
     inkscape:deskcolor="#d1d1d1"
     showgrid="false"
     inkscape:zoom="1.6347656"
     inkscape:cx="144.97491"
     inkscape:cy="207.36918"
     inkscape:window-width="1920"
     inkscape:window-height="1017"
     inkscape:window-x="-8"
     inkscape:window-y="-8"
     inkscape:window-maximized="1"
     inkscape:current-layer="svg4" />
  <!--! Font Awesome Pro 6.4.0 by @fontawesome - https://fontawesome.com License - https://fontawesome.com/license (Commercial License) Copyright 2023 Fonticons, Inc. -->
  <path
     d="m 12.002677,5.8453988 c -3.4052425,0 -6.1519241,2.7466815 -6.1519241,6.1519242 0,3.405243 2.7466816,6.151924 6.1519241,6.151924 3.405243,0 6.151924,-2.746681 6.151924,-6.151924 0,-3.4052427 -2.746681,-6.1519242 -6.151924,-6.1519242 z m 0,10.1514782 c -2.2005576,0 -3.9995537,-1.793642 -3.9995537,-3.999554 0,-2.205912 1.7936419,-3.9995539 3.9995537,-3.9995539 2.205912,0 3.999554,1.7936419 3.999554,3.9995539 0,2.205912 -1.798996,3.999554 -3.999554,3.999554 z M 19.84116,5.5937535 c 0,0.7977691 -0.642499,1.4349135 -1.434913,1.4349135 -0.79777,0 -1.434914,-0.6424986 -1.434914,-1.4349135 0,-0.792415 0.642499,-1.4349136 1.434914,-1.4349136 0.792414,0 1.434913,0.6424986 1.434913,1.4349136 z m 4.074512,1.4563302 C 23.824651,5.127942 23.385611,3.4253207 21.977468,2.0225321 20.574679,0.61974345 18.872058,0.18070273 16.949916,0.08432794 c -1.981037,-0.11243725 -7.918795,-0.11243725 -9.8998323,0 C 5.1332962,0.17534858 3.4306748,0.61438929 2.0225321,2.0171779 0.61438929,3.4199665 0.18070273,5.1225878 0.08432794,7.0447295 c -0.11243725,1.9810374 -0.11243725,7.9187955 0,9.8998325 0.09102064,1.922142 0.53006135,3.624763 1.93820416,5.027552 1.4081427,1.402788 3.1054099,1.841829 5.0275516,1.938204 1.9810373,0.112437 7.9187953,0.112437 9.8998323,0 1.922142,-0.09102 3.624763,-0.530061 5.027552,-1.938204 1.402789,-1.402789 1.841829,-3.10541 1.938204,-5.027552 0.112437,-1.981037 0.112437,-7.913441 0,-9.8944783 z M 21.356386,19.070162 c -0.417624,1.049414 -1.226102,1.857892 -2.28087,2.28087 -1.579476,0.626436 -5.327384,0.481874 -7.072839,0.481874 -1.745454,0 -5.4987172,0.139208 -7.0728387,-0.481874 C 3.8804239,20.933408 3.0719465,20.12493 2.6489682,19.070162 2.0225321,17.490686 2.1670943,13.742777 2.1670943,11.997323 c 0,-1.745455 -0.1392081,-5.4987173 0.4818739,-7.0728389 0.4176241,-1.0494144 1.2261015,-1.8578918 2.2808701,-2.28087 1.5794757,-0.6264362 5.3273847,-0.481874 7.0728387,-0.481874 1.745455,0 5.498717,-0.139208 7.072839,0.481874 1.049414,0.417624 1.857892,1.2261015 2.28087,2.28087 0.626436,1.5794757 0.481874,5.3273839 0.481874,7.0728389 0,1.745454 0.144562,5.498717 -0.481874,7.072839 z"
     id="path2"
     style="stroke-width:0.0535416;fill:#ffffff;fill-opacity:1" />
</svg>
