<?xml version="1.0" encoding="UTF-8" standalone="no"?>
<svg
   viewBox="0 0 24 24"
   version="1.1"
   id="svg4"
   sodipodi:docname="whatsapp.svg"
   width="24"
   height="24"
   inkscape:version="1.2.2 (732a01da63, 2022-12-09)"
   xmlns:inkscape="http://www.inkscape.org/namespaces/inkscape"
   xmlns:sodipodi="http://sodipodi.sourceforge.net/DTD/sodipodi-0.dtd"
   xmlns="http://www.w3.org/2000/svg"
   xmlns:svg="http://www.w3.org/2000/svg">
  <defs
     id="defs8" />
  <sodipodi:namedview
     id="namedview6"
     pagecolor="#ffffff"
     bordercolor="#000000"
     borderopacity="0.25"
     inkscape:showpageshadow="2"
     inkscape:pageopacity="0.0"
     inkscape:pagecheckerboard="0"
     inkscape:deskcolor="#d1d1d1"
     showgrid="false"
     inkscape:zoom="6.5390625"
     inkscape:cx="58.876942"
     inkscape:cy="44.348865"
     inkscape:window-width="1920"
     inkscape:window-height="1017"
     inkscape:window-x="-8"
     inkscape:window-y="-8"
     inkscape:window-maximized="1"
     inkscape:current-layer="svg4" />
  <!--! Font Awesome Pro 6.4.0 by @fontawesome - https://fontawesome.com License - https://fontawesome.com/license (Commercial License) Copyright 2023 Fonticons, Inc. -->
  <path
     d="M 20.405357,3.4875 C 18.160714,1.2375 15.171429,0 11.994643,0 5.4375,0 0.10178571,5.3357143 0.10178571,11.892857 c 0,2.094643 0.54642858,4.141072 1.58571429,5.946429 L 0,24 6.3053571,22.344643 c 1.7357143,0.948214 3.6910715,1.446428 5.6839289,1.446428 h 0.0054 C 18.546429,23.791071 24,18.455357 24,11.898214 24,8.7214286 22.65,5.7375 20.405357,3.4875 Z m -8.410714,18.3 c -1.778572,0 -3.519643,-0.476786 -5.0357144,-1.376786 L 6.6,20.196429 2.8607143,21.176786 3.8571429,17.528571 3.6214286,17.153571 C 2.6303571,15.578571 2.1107143,13.7625 2.1107143,11.892857 2.1107143,6.4446429 6.5464286,2.0089286 12,2.0089286 c 2.641071,0 5.121429,1.0285714 6.985714,2.8982143 1.864286,1.8696428 3.010715,4.35 3.005357,6.9910711 0,5.453572 -4.548214,9.889286 -9.996428,9.889286 z m 5.421428,-7.403571 c -0.294642,-0.15 -1.757142,-0.867858 -2.030357,-0.964286 -0.273214,-0.101786 -0.471428,-0.15 -0.669643,0.15 -0.198214,0.3 -0.766071,0.964286 -0.942857,1.167857 -0.171428,0.198214 -0.348214,0.225 -0.642857,0.075 -1.746428,-0.873214 -2.892857,-1.558929 -4.0446427,-3.535714 -0.3053572,-0.525 0.3053571,-0.4875 0.8732143,-1.6232146 0.096428,-0.1982143 0.048214,-0.3696428 -0.026786,-0.5196428 -0.075,-0.15 -0.6696429,-1.6125 -0.9160715,-2.2071429 C 8.775,6.3482143 8.5285714,6.4285714 8.3464286,6.4178571 8.175,6.4071429 7.9767857,6.4071429 7.7785714,6.4071429 c -0.1982143,0 -0.5196428,0.075 -0.7928571,0.3696428 -0.2732143,0.3 -1.0392857,1.0178572 -1.0392857,2.4803572 0,1.4625001 1.0660714,2.8767861 1.2107143,3.0750001 0.15,0.198214 2.0946428,3.198214 5.0785711,4.489286 1.885715,0.814285 2.625,0.883928 3.567857,0.744642 0.573215,-0.08571 1.757143,-0.717857 2.003572,-1.414285 0.246428,-0.696429 0.246428,-1.291072 0.171428,-1.414286 -0.06964,-0.133929 -0.267857,-0.208929 -0.5625,-0.353571 z"
     id="path2"
     style="stroke-width:0.0535714;fill:#ffffff;fill-opacity:1" />
</svg>
