<?xml version="1.0" encoding="UTF-8" standalone="no"?>
<!-- Created with Inkscape (http://www.inkscape.org/) -->

<svg
   version="1.1"
   id="svg2"
   width="150"
   height="150"
   viewBox="0 0 150 150"
   sodipodi:docname="abitudini-salutari.svg"
   inkscape:version="1.2.2 (732a01da63, 2022-12-09)"
   inkscape:export-filename="allenamento.png"
   inkscape:export-xdpi="96"
   inkscape:export-ydpi="96"
   xmlns:inkscape="http://www.inkscape.org/namespaces/inkscape"
   xmlns:sodipodi="http://sodipodi.sourceforge.net/DTD/sodipodi-0.dtd"
   xmlns="http://www.w3.org/2000/svg"
   xmlns:svg="http://www.w3.org/2000/svg">
  <defs
     id="defs6" />
  <sodipodi:namedview
     id="namedview4"
     pagecolor="#ffffff"
     bordercolor="#000000"
     borderopacity="0.25"
     inkscape:showpageshadow="2"
     inkscape:pageopacity="0.0"
     inkscape:pagecheckerboard="0"
     inkscape:deskcolor="#d1d1d1"
     showgrid="false"
     inkscape:zoom="1.5007981"
     inkscape:cx="77.958521"
     inkscape:cy="169.24328"
     inkscape:window-width="1280"
     inkscape:window-height="961"
     inkscape:window-x="1912"
     inkscape:window-y="40"
     inkscape:window-maximized="1"
     inkscape:current-layer="svg2" />
  <path
     id="path233"
     style="fill:#000000;fill-opacity:1;stroke:none;stroke-width:15.1181;stroke-linecap:round;stroke-linejoin:round;paint-order:stroke fill markers"
     d="M 75,0 A 75,75 0 0 0 0,75 75,75 0 0 0 75,150 75,75 0 0 0 150,75 75,75 0 0 0 75,0 Z m 13.203125,25 c 5.974562,0 10.769531,5.060555 10.769531,11.115234 0,6.054681 -4.794969,11.113282 -10.769531,11.113282 -5.974563,0 -10.769531,-5.058601 -10.769531,-11.113282 C 77.433594,30.060555 82.228562,25 88.203125,25 Z m 0,5 c -3.159507,0 -5.769531,2.654484 -5.769531,6.115234 0,3.460755 2.610024,6.113282 5.769531,6.113282 3.159505,0 5.769531,-2.652527 5.769531,-6.113282 C 93.972656,32.654484 91.36263,30 88.203125,30 Z M 66.4375,47.822266 c 2.722474,-0.06514 5.357328,0.381272 8.039062,1.023437 3.564754,0.853609 7.749057,2.157746 11.552735,3.951172 3.82757,1.804599 7.292043,4.200345 9.884765,7.564453 2.54631,3.303881 3.815776,6.71254 4.300778,7.619141 0.26925,0.503364 0.29016,0.526092 0.28516,0.539062 -0.0837,-0.04551 0.62545,0.223514 1.33398,0.408203 0.72706,0.18952 1.56676,0.370545 2.10352,0.453125 1.28034,0.196988 1.12354,0.154297 1.95898,0.154297 4.42029,0 8.05664,3.636362 8.05664,8.056641 1e-5,4.420277 -3.63635,8.056641 -8.05664,8.056641 -0.83376,-10e-7 -2.36824,-0.02765 -4.41015,-0.341797 -1.894706,-0.291503 -4.92632,-0.757768 -8.136721,-2.337891 -3.396928,-1.671939 -5.75267,-4.511736 -7.24414,-7.246094 -0.84607,2.727712 -1.690537,5.457157 -2.539063,8.181641 2.04754,1.368834 4.211984,2.793787 5.810547,3.875 1.984163,1.342019 3.378643,2.353581 4.675781,3.806641 0.971739,1.088541 1.440479,2.254071 1.835938,3.302734 0.19773,0.52433 0.353916,1.010641 0.470703,1.423828 0.116788,0.413186 0.20154,0.529568 0.25,1.208984 0.05329,0.746212 0.05363,1.848312 -0.160156,3.130856 -0.185453,1.11256 -0.473304,2.27093 -0.94336,3.96289 -0.943932,3.39782 -2.680597,9.02932 -4.425781,14.70118 -1.299864,4.22465 -5.845578,6.62968 -10.070312,5.33007 -4.224655,-1.29986 -6.63164,-5.84362 -5.332032,-10.06836 a 2.5002816,2.5002816 0 0 0 0,-0.002 c 1.684995,-5.47624 3.317543,-10.81545 4.152344,-13.78125 -2.184364,-1.442496 -5.807976,-3.741537 -9.40039,-6.382811 -1.070505,1.990107 -2.182204,4.06634 -3.044922,5.623051 -0.930293,1.67863 -1.722248,3.63893 -4.128907,5.58203 -1.461995,1.18038 -3.084076,1.81744 -4.595703,2.0957 -1.253502,0.23056 -2.200957,0.21656 -2.757812,0.22656 -2.586794,0.0479 -7.17332,0.0449 -11.798828,0.0449 -4.420295,0 -8.056641,-3.63637 -8.056641,-8.056646 0,-4.420288 3.636352,-8.058593 8.056641,-8.058593 3.774259,0 6.973306,-0.0097 9.398437,-0.0332 1.95038,-3.531649 5.433759,-10.01406 6.847656,-12.59375 1.529334,-4.932581 3.017552,-9.706007 4.548829,-14.623047 -0.478828,0.207122 -0.799548,0.219518 -1.53125,0.728515 -1.339079,0.931509 -3.192442,2.575079 -5.189454,4.398438 -3.264345,2.980071 -8.402485,2.746538 -11.382812,-0.517578 -2.980468,-3.263928 -2.748027,-8.402041 0.515625,-11.382813 a 2.5002816,2.5002816 0 0 0 0.002,0 c 1.996945,-1.823294 4.21422,-3.89057 6.853516,-5.726562 2.658933,-1.849648 5.821665,-3.456446 9.52539,-4.048829 0.924505,-0.147847 1.840278,-0.226356 2.746094,-0.248046 z m 0.119141,5 c -0.699688,0.01675 -1.387574,0.07543 -2.076172,0.185546 -2.749566,0.439772 -5.211986,1.651753 -7.458985,3.214844 -2.266797,1.576868 -4.320047,3.472079 -6.33789,5.314453 -1.2685,1.158552 -1.353746,3.049753 -0.195313,4.31836 1.158371,1.268671 3.049595,1.35554 4.31836,0.197265 2.017782,-1.842321 3.922236,-3.568981 5.707031,-4.810546 1.753347,-1.219691 3.345463,-1.941305 4.933594,-2.195313 0.960236,-0.153578 2.043635,-0.152553 3.347656,0.01563 a 2.5002816,2.5002816 0 0 1 2.066406,3.222656 c -2.017919,6.484069 -3.853973,12.366636 -5.808594,18.671875 a 2.5002816,2.5002816 0 0 1 -0.195312,0.462891 c -1.355494,2.468051 -5.211936,9.653196 -7.19336,13.228516 -0.302311,0.545505 -0.505578,0.825931 -0.646484,1.042968 a 2.5002816,2.5002816 0 0 1 -2.0625,1.138672 c -2.436518,0.03456 -6.517278,0.03906 -10.851562,0.03906 -1.718062,0 -3.056641,1.340535 -3.056641,3.058593 0,1.718044 1.338586,3.056644 3.056641,3.056644 4.626949,-1e-5 9.234139,5.7e-4 11.707031,-0.0449 a 2.5002816,2.5002816 0 0 0 0.002,0 c 0.708009,-0.0128 1.123594,0.006 1.943359,-0.14453 0.56163,-0.10338 1.797696,-0.61488 2.359375,-1.06836 1.640682,-1.32467 1.771683,-2.08366 2.896485,-4.113277 1.213764,-2.190133 2.756867,-5.078605 4.367187,-8.068359 a 2.5002816,2.5002816 0 0 1 3.785156,-0.75 c 3.934967,3.220851 9.085202,6.229187 11.986329,8.191406 0.742265,0.502057 0.812761,0.591155 1.083984,0.804688 a 2.5002816,2.5002816 0 0 1 0.882813,2.550782 c -0.08229,0.34039 -0.110697,0.54429 -0.320313,1.29882 -0.846547,3.04729 -2.594161,8.73279 -4.339844,14.40626 -0.505135,1.64208 0.381413,3.31703 2.023438,3.82226 1.64204,0.50512 3.315088,-0.38143 3.820312,-2.02344 1.745669,-5.67343 3.485607,-11.32467 4.386719,-14.56836 0.452551,-1.62895 0.688417,-2.60914 0.828125,-3.44726 0.100917,-0.605729 0.108916,-1.530674 0.103516,-1.808594 -0.01354,-0.08137 -0.0349,-0.224323 -0.07031,-0.349609 -0.07638,-0.270223 -0.194662,-0.637771 -0.33789,-1.017578 -0.286459,-0.759617 -0.766081,-1.600955 -0.888672,-1.738281 -0.89152,-0.998686 -1.828715,-1.69597 -3.748047,-2.994141 -1.948894,-1.318166 -4.784332,-3.161239 -7.355469,-4.908203 a 2.5002816,2.5002816 0 0 1 -0.980469,-2.810547 c 1.632248,-5.238918 3.258804,-10.472239 4.878907,-15.722656 a 2.5002816,2.5002816 0 0 1 4.490234,-0.619141 c 1.011297,1.565877 1.747502,3.3815 2.80664,5.361328 1.091674,2.04065 2.9418,4.17656 5.142579,5.259766 2.443851,1.202837 4.819029,1.595045 6.689449,1.882812 1.72273,0.265045 2.91429,0.283204 3.65039,0.283204 1.71808,0 3.05664,-1.338569 3.05664,-3.056641 1e-5,-1.718071 -1.33856,-3.056641 -3.05664,-3.056641 -0.73442,0 -1.30734,0.0046 -2.7207,-0.21289 -0.8098,-0.124584 -1.73562,-0.330409 -2.60351,-0.556641 C 99.70436,73.539393 99.052831,73.387388 98.257812,72.996094 97.983257,72.860962 97.32889,72.561384 96.822266,71.980469 96.315642,71.399552 96.168567,71.016392 95.806641,70.339844 94.85454,68.560092 93.977625,66.040892 91.953125,63.414062 89.974307,60.846507 87.236422,58.894086 83.898438,57.320312 80.536117,55.735065 76.609466,54.49847 73.3125,53.708984 70.847705,53.118768 68.650698,52.772156 66.556641,52.822266 Z" />
</svg>
