<?xml version="1.0" encoding="UTF-8" standalone="no"?>
<!-- Created with Inkscape (http://www.inkscape.org/) -->

<svg
   version="1.1"
   id="svg2"
   width="150"
   height="150"
   viewBox="0 0 150 150"
   sodipodi:docname="percorso-nutrizionale.svg"
   inkscape:version="1.2.2 (732a01da63, 2022-12-09)"
   inkscape:export-filename="..\..\..\SITO 🔧 VALE\ICONE\round icons\percorso-nutrizionale.png"
   inkscape:export-xdpi="96"
   inkscape:export-ydpi="96"
   xmlns:inkscape="http://www.inkscape.org/namespaces/inkscape"
   xmlns:sodipodi="http://sodipodi.sourceforge.net/DTD/sodipodi-0.dtd"
   xmlns="http://www.w3.org/2000/svg"
   xmlns:svg="http://www.w3.org/2000/svg">
  <defs
     id="defs6" />
  <sodipodi:namedview
     id="namedview4"
     pagecolor="#ffffff"
     bordercolor="#000000"
     borderopacity="0.25"
     inkscape:showpageshadow="2"
     inkscape:pageopacity="0.0"
     inkscape:pagecheckerboard="0"
     inkscape:deskcolor="#d1d1d1"
     showgrid="true"
     inkscape:zoom="7.7912869"
     inkscape:cx="3.2087125"
     inkscape:cy="53.778022"
     inkscape:window-width="1920"
     inkscape:window-height="1017"
     inkscape:window-x="-8"
     inkscape:window-y="-8"
     inkscape:window-maximized="1"
     inkscape:current-layer="g8" />
  <g
     inkscape:groupmode="layer"
     inkscape:label="Image"
     id="g8"
     transform="translate(-511.81097,-422.01736)">
    <path
       id="path5140"
       style="fill:#000000;fill-opacity:1;stroke:none;stroke-width:5;stroke-linecap:round;stroke-linejoin:round;stroke-dasharray:none;paint-order:stroke fill markers"
       d="m 586.81097,422.01736 a 75,75 0 0 0 -75,75 75,75 0 0 0 75,75 75,75 0 0 0 75,-75 75,75 0 0 0 -75,-75 z m 36.1875,25.00195 a 2.3514754,2.6584341 0 0 0 0.002,0 c 0.18421,-0.002 0.49165,-0.0161 0.91211,0.0527 0.42986,0.0704 0.96388,0.22717 1.51172,0.65234 0.82181,0.63785 1.1988,1.49478 1.38281,2.25 0.17506,0.71877 0.16516,1.28932 0.16016,1.66992 -0.0433,3.61854 -1.19178,6.94611 -2.70703,9.79297 -2.39733,4.50409 -5.98915,8.29352 -10.42188,10.3086 -3.26962,1.48635 -6.61279,1.88086 -9.69336,2.27539 -3.0745,0.39375 -5.97543,0.81234 -8.44531,1.96093 -0.0939,0.0437 -0.39614,0.22528 -0.95508,0.29688 -0.0593,0.008 -0.13121,0.004 -0.19531,0.008 -0.11962,1.93528 -0.55511,3.844 -1.29492,5.61328 -0.10098,0.24149 -0.20876,0.47823 -0.32031,0.71289 3.65253,-1.42157 7.73166,-3.32522 12.56445,-3.49804 a 2.3514754,2.6584341 0 0 1 0.22656,0.004 c 4.5598,0.33252 9.24592,2.24927 12.62696,5.76367 5.15285,5.35614 8.22128,13.15255 8.60156,20.55469 0.46758,9.10274 -3.58524,17.5223 -7.47852,24.94922 -2.39827,4.5751 -5.58611,9.0833 -9.87109,12.61524 -1.93244,1.59283 -4.33778,3.15804 -7.20703,3.73046 -2.94247,0.58704 -5.99806,0.22411 -8.69532,-0.67968 a 2.3514754,2.6584341 0 0 1 -0.0469,-0.0176 c -2.94373,-1.06189 -4.52953,-2.65626 -6.72852,-2.52539 a 2.3514754,2.6584341 0 0 1 -0.0937,0.002 c -2.33901,0.0341 -3.91387,0.98021 -6.59961,2.40039 a 2.3514754,2.6584341 0 0 1 -0.32812,0.14063 c -2.69735,0.90382 -5.75105,1.26647 -8.69336,0.67968 -2.86959,-0.57227 -5.27755,-2.13693 -7.21094,-3.73046 -4.28517,-3.53195 -7.47142,-8.04099 -9.86914,-12.61524 -3.90036,-7.44091 -7.79164,-15.76584 -7.48242,-24.89648 0.24951,-7.36802 2.84444,-15.1616 7.88477,-20.57813 3.36341,-3.61447 8.10201,-5.42372 12.61132,-5.79101 a 2.3514754,2.6584341 0 0 1 0.0527,-0.004 c 3.59706,-0.20191 6.98848,1.19683 10.28125,2.48437 2.77906,1.08669 5.48406,2.11003 8,2.45118 1.50981,-1.04741 2.76988,-2.62171 3.52344,-4.42383 0.8493,-2.03114 1.09243,-4.44144 0.66992,-6.63672 -0.35918,-1.86622 -1.20236,-3.64509 -2.37891,-5.01563 -1.17654,-1.37053 -2.72597,-2.37813 -4.36523,-2.83984 a 2.3512402,2.6581683 0 0 1 -1.71289,-3.22266 2.3512402,2.6581683 0 0 1 2.84961,-1.93554 c 2.50632,0.70594 4.80265,2.19942 6.60156,4.29492 0.86801,1.01113 1.60691,2.15133 2.20312,3.37891 0.79002,-2.78512 1.92136,-5.44503 3.375,-7.8711 2.15898,-3.60322 5.03103,-6.72594 8.49414,-8.8418 5.78677,-3.5355 12.30933,-3.85102 18.25977,-3.91992 z m -0.86523,5.38477 c -5.48301,0.10578 -10.84436,0.57728 -15.15821,3.21289 -2.71251,1.65725 -5.05799,4.17917 -6.83594,7.14648 -1.31437,2.19363 -2.20117,4.66685 -2.85937,7.21485 2.1583,-0.58377 4.30465,-0.97838 6.33398,-1.23828 3.08093,-0.39458 5.98908,-0.79874 8.47266,-1.92774 3.34227,-1.51938 6.22121,-4.50172 8.14453,-8.11523 1.07412,-2.01805 1.72529,-4.18117 1.90235,-6.29297 z m -54.67969,32.02734 c -3.57904,0.29847 -7.40886,1.89379 -9.67774,4.33203 -3.96431,4.26019 -6.22221,10.86101 -6.42773,16.92969 -0.24552,7.25 3.03155,14.73773 6.83008,21.98438 2.15645,4.11394 4.95331,8.02876 8.59375,11.02929 1.59742,1.31663 3.41625,2.42181 5.25781,2.78907 2.00985,0.40083 4.41518,0.1498 6.4707,-0.52735 2.47494,-1.3175 4.89876,-2.70457 8.23633,-2.76367 4.028,-0.21276 6.68235,2.15364 8.32617,2.75586 2.06446,0.68743 4.49271,0.93874 6.51563,0.53516 1.84054,-0.36719 3.65854,-1.47246 5.25586,-2.78907 3.64112,-3.00123 6.43736,-6.91564 8.59375,-11.02929 3.80585,-7.26019 7.19298,-14.86663 6.83008,-21.93164 -0.30368,-5.91111 -2.96054,-12.65704 -7.08985,-16.94922 -2.34244,-2.43485 -6.11026,-4.05943 -9.63867,-4.34375 -5.84168,0.26911 -11.48014,4.92379 -18.69336,5.04101 a 2.3514754,2.6584341 0 0 1 -0.0879,0 c -0.27666,-0.007 -0.54867,-0.0361 -0.82227,-0.0566 a 2.3512402,2.6581683 0 0 1 -0.17382,-0.0117 c -3.53343,-0.30044 -6.81155,-1.62809 -9.81055,-2.80078 -3.26977,-1.27855 -6.20897,-2.31404 -8.48828,-2.19336 z" />
  </g>
</svg>
