<?xml version="1.0" encoding="UTF-8" standalone="no"?>
<!-- Created with Inkscape (http://www.inkscape.org/) -->

<svg
   version="1.1"
   id="svg1201"
   width="150"
   height="150"
   viewBox="0 0 150 150"
   sodipodi:docname="supporto-e-motivazione.svg"
   inkscape:version="1.2.2 (732a01da63, 2022-12-09)"
   inkscape:export-filename="round icons\motivazione.png"
   inkscape:export-xdpi="96"
   inkscape:export-ydpi="96"
   xmlns:inkscape="http://www.inkscape.org/namespaces/inkscape"
   xmlns:sodipodi="http://sodipodi.sourceforge.net/DTD/sodipodi-0.dtd"
   xmlns="http://www.w3.org/2000/svg"
   xmlns:svg="http://www.w3.org/2000/svg">
  <defs
     id="defs1205" />
  <sodipodi:namedview
     id="namedview1203"
     pagecolor="#ffffff"
     bordercolor="#000000"
     borderopacity="0.25"
     inkscape:showpageshadow="2"
     inkscape:pageopacity="0.0"
     inkscape:pagecheckerboard="0"
     inkscape:deskcolor="#d1d1d1"
     showgrid="false"
     inkscape:zoom="1.1559539"
     inkscape:cx="-23.357333"
     inkscape:cy="230.97807"
     inkscape:window-width="1920"
     inkscape:window-height="1017"
     inkscape:window-x="-8"
     inkscape:window-y="-8"
     inkscape:window-maximized="1"
     inkscape:current-layer="svg1201" />
  <path
     id="path1033"
     style="fill:#000000;fill-opacity:1;stroke:none;stroke-width:5;stroke-linecap:round;stroke-linejoin:round;stroke-dasharray:none;stroke-opacity:1;paint-order:stroke fill markers"
     d="M 75,0 A 75,75 0 0 0 0,75 75,75 0 0 0 75,150 75,75 0 0 0 150,75 75,75 0 0 0 75,0 Z m 0.05469,25 a 2.49997,2.49997 0 0 1 2.5,2.5 c 0.0015,2.411098 0.0044,4.821204 0.0059,7.232422 a 2.49997,2.49997 0 0 1 -2.49809,2.501953 2.49997,2.49997 0 0 1 -2.501953,-2.498047 c -0.0015,-2.411355 -0.0044,-4.823415 -0.0059,-7.234375 A 2.49997,2.49997 0 0 1 75.054688,25 Z M 41.828125,38.371094 a 2.49997,2.49997 0 0 1 1.769531,0.728515 l 5.126953,5.103516 a 2.49997,2.49997 0 0 1 0.0078,3.535156 2.49997,2.49997 0 0 1 -3.535156,0.0078 l -5.126954,-5.103516 a 2.49997,2.49997 0 0 1 -0.0078,-3.535156 2.49997,2.49997 0 0 1 1.765625,-0.736328 z m 66.201175,0.189453 a 2.49997,2.49997 0 0 1 1.76562,0.736328 2.49997,2.49997 0 0 1 -0.008,3.535156 l -5.12695,5.103516 a 2.49997,2.49997 0 0 1 -3.53516,-0.0078 2.49997,2.49997 0 0 1 0.008,-3.535156 l 5.125,-5.103516 a 2.49997,2.49997 0 0 1 1.77149,-0.728515 z m -35.894534,4.447265 c 1.67127,0 1.973338,0.05852 3.148437,0.615235 0.714648,0.33857 1.686198,0.973274 2.160156,1.410156 0.956143,0.881341 1.979111,2.640349 2.1875,3.763672 0.07464,0.402393 0.20388,0.772779 0.28711,0.824219 0.08324,0.05144 0.57587,-0.100649 1.095703,-0.337891 0.760834,-0.347237 1.305333,-0.431747 2.792969,-0.435547 1.676544,-0.0043 1.96963,0.05286 3.148437,0.611328 0.714648,0.338572 1.686197,0.973274 2.160156,1.410157 0.956141,0.881341 1.979113,2.640349 2.1875,3.763671 0.07465,0.402393 0.20388,0.772779 0.28711,0.824219 0.08323,0.05144 0.575871,-0.100648 1.095703,-0.33789 0.762009,-0.347767 1.304669,-0.431747 2.802734,-0.435547 1.761544,-0.0045 1.936113,0.03283 3.34375,0.728515 1.753529,0.866643 2.838119,1.985326 3.724609,3.837891 l 0.60547,1.265625 -0.002,14.685547 c -0.003,14.486746 -0.009,14.706944 -0.42578,16.179687 -1.15061,4.061973 -2.914465,6.966745 -6.181646,10.179691 -1.19676,1.17689 -2.798099,2.53416 -3.558593,3.01562 l -1.382813,0.875 -0.01172,9.11328 c 0,0 -0.01172,6.07543 -0.01172,9.11328 0,1.32279 5.18e-4,1.32227 -1.322266,1.32227 H 86.724609 66.921875 63.380859 59.841797 c -1.322818,0 -1.324219,5.2e-4 -1.324219,-1.32227 v -9.16211 c 0,-5.39937 -0.07302,-9.1621 -0.177734,-9.1621 -0.339968,0 -3.428523,-2.40753 -4.847656,-3.77735 -3.579718,-3.455317 -5.873162,-7.783416 -6.449219,-12.173826 -0.140233,-1.068758 -0.196533,-4.715276 -0.158203,-10.310547 0,0 0.05859,3.94e-4 0.05859,-8.65625 0,-3.112432 2.645774,-4.755818 4.330079,-5.320313 l 1.380859,-0.46289 0.0625,-4.998047 0.0625,-4.998047 0.734375,-1.482422 c 0.866681,-1.75267 1.985999,-2.840402 3.83789,-3.726562 1.14433,-0.547579 1.438843,-0.60391 3.111329,-0.59961 1.487634,0.0039 2.034086,0.08832 2.794921,0.435547 1.046448,0.477582 1.291016,0.434763 1.291016,-0.230469 0,-0.246784 0.309893,-1.069428 0.689453,-1.828125 0.821022,-1.641128 1.983639,-2.749273 3.785157,-3.611328 1.140721,-0.545858 1.444113,-0.605469 3.111328,-0.605469 z m 0,3.890626 c -1.161941,0 -1.431391,0.07344 -2.15625,0.583984 -0.455709,0.32097 -1.032309,0.967919 -1.28125,1.439453 -0.450726,0.853759 -0.453124,0.888036 -0.453125,8.21875 v 7.361328 h 3.890625 3.890625 v -7.361328 c 0,-7.330714 -4.54e-4,-7.364991 -0.451172,-8.21875 -0.248943,-0.471534 -0.825544,-1.118483 -1.28125,-1.439453 -0.724861,-0.510545 -0.996263,-0.583984 -2.158203,-0.583984 z m -11.671875,5.835937 c -1.161941,0 -1.431389,0.07149 -2.15625,0.582031 -0.455709,0.320971 -1.032309,0.969874 -1.28125,1.441406 -0.435574,0.825056 -0.453126,1.02457 -0.453125,5.300782 v 4.443359 h 3.890625 3.890625 v -4.443359 c 0,-4.276212 -0.0156,-4.475726 -0.451172,-5.300782 -0.248943,-0.471532 -0.825542,-1.120435 -1.28125,-1.441406 -0.724861,-0.51054 -0.996264,-0.582031 -2.158203,-0.582031 z m 23.34375,0 c -1.16194,0 -1.431388,0.07149 -2.15625,0.582031 -0.455708,0.320971 -1.035899,0.977517 -1.289063,1.457032 -0.459476,0.870305 -0.460507,0.882137 -0.404297,6.9375 l 0.05664,6.066406 0.583984,0.828125 c 0.32097,0.455494 0.969873,1.032307 1.441406,1.28125 0.738547,0.3899 1.136677,0.451172 2.88086,0.451172 1.113601,0 2.195399,-0.09042 2.402344,-0.201172 0.361539,-0.193491 0.375,-0.481478 0.375,-7.361328 0,-7.119918 -0.003,-7.165049 -0.453125,-8.017579 -0.248943,-0.471532 -0.825543,-1.120435 -1.28125,-1.441406 -0.724863,-0.51054 -0.994309,-0.582031 -2.156249,-0.582031 z m 11.671875,5.835937 c -1.161939,0 -1.43139,0.07149 -2.15625,0.582032 -0.455709,0.32097 -1.0359,0.977515 -1.289063,1.457031 -0.459476,0.870307 -0.460507,0.882138 -0.404297,6.9375 l 0.05664,6.066406 0.583984,0.828125 c 1.268526,1.800194 3.650128,2.259499 5.382813,1.039063 0.445934,-0.314103 1.01473,-0.956202 1.263672,-1.427735 0.444921,-0.842671 0.453125,-0.957079 0.453125,-6.728515 0,-5.771437 -0.0085,-5.887797 -0.453125,-6.730469 -0.248942,-0.471534 -0.825543,-1.120436 -1.28125,-1.441406 -0.724864,-0.510541 -0.994306,-0.582032 -2.156249,-0.582032 z m -41.761719,9.822266 c -1.062472,0 -2.882813,0.821819 -2.882813,2.5625 v 9.175781 c 0,8.94969 0.01052,9.211429 0.439454,10.691407 1.289662,4.449732 4.60149,8.477436 9.392578,11.423824 0.679334,0.41777 1.34679,0.95876 1.482422,1.20313 0.188496,0.33956 0.248606,2.47503 0.253906,9.05273 l 0.0059,8.60743 h 2.257813 2.255859 18.644531 2.13086 v -8.54883 c 0,-6.02442 0.06713,-8.69541 0.224609,-9.04102 0.122921,-0.26978 0.801561,-0.83663 1.507813,-1.25976 3.942448,-2.361996 7.237005,-5.983724 8.740234,-9.605473 1.003185,-2.416989 1.199219,-3.885167 1.199219,-8.982422 0,-2.518775 -0.03237,-4.580078 -0.07227,-4.580078 -0.0399,0 -0.499689,0.195483 -1.021484,0.433594 -0.765944,0.349519 -1.30655,0.4337 -2.806641,0.4375 -1.760993,0.0045 -1.93506,-0.03424 -3.339844,-0.728516 -1.783383,-0.881397 -2.982694,-2.123464 -3.75,-3.884766 l -0.533203,-1.222656 -2.132812,0.07227 c -3.066236,0.10495 -4.919963,-0.34674 -6.697266,-1.632813 -0.399201,-0.288866 -0.438373,-0.257267 -1.048828,0.828125 -0.966701,1.718789 -3.481361,4.10774 -5.294922,5.029297 -0.828712,0.421108 -1.507353,0.820732 -1.507813,0.888672 -3.88e-4,0.06794 0.238981,0.280371 0.533204,0.470703 1.99885,1.293057 4.574658,4.214233 5.808593,6.587891 0.393969,0.757857 0.733757,1.398931 0.753907,1.425781 0.02015,0.02684 0.821432,-0.725814 1.78125,-1.673828 1.450011,-1.432179 2.055482,-1.875646 3.582031,-2.621094 1.894631,-0.925195 4.075306,-1.492187 5.740234,-1.492187 0.767601,0 1.00225,0.09991 1.564453,0.662109 0.897438,0.897434 0.897438,1.668971 0,2.566406 -0.534471,0.53447 -0.814397,0.66211 -1.451172,0.66211 -4.997902,0 -9.560546,4.562644 -9.560546,9.560547 0,0.636774 -0.125685,0.914746 -0.660157,1.449218 -0.887144,0.887149 -1.672984,0.896301 -2.537109,0.0293 -0.586141,-0.588093 -0.638733,-0.749627 -0.748047,-2.3125 -0.27036,-3.868953 -1.81447,-7.281265 -4.519531,-9.986328 -2.705063,-2.705065 -6.11931,-4.250871 -9.988281,-4.521484 -1.562874,-0.109314 -1.724411,-0.159954 -2.3125,-0.746094 -0.698001,-0.695689 -0.799686,-1.334469 -0.353516,-2.197266 0.461636,-0.892704 0.98825,-1.001953 4.876953,-1.001953 3.991655,0 5.066503,-0.158401 6.90625,-1.023437 2.283552,-1.073703 4.582996,-3.860809 5.134766,-6.222657 l 0.125,-0.535156 h -11.0625 z m -19.244141,4.310547 a 2.49997,2.49997 0 0 1 2.501953,2.498047 2.49997,2.49997 0 0 1 -2.5,2.501953 l -7.232421,0.0039 a 2.49997,2.49997 0 0 1 -2.501954,-2.498047 2.49997,2.49997 0 0 1 2.498047,-2.501953 z m 88.287114,0 a 2.49997,2.49997 0 0 1 2.5,2.498047 2.49997,2.49997 0 0 1 -2.49805,2.501953 c -2.41111,0.0015 -4.8212,0.0024 -7.23242,0.0039 a 2.49997,2.49997 0 0 1 -2.50196,-2.498047 2.49997,2.49997 0 0 1 2.49805,-2.501953 c 2.41137,-0.0015 4.82342,-0.0024 7.23438,-0.0039 z" />
</svg>
