<?xml version="1.0" encoding="UTF-8" standalone="no"?>
<!-- Created with Inkscape (http://www.inkscape.org/) -->

<svg
   version="1.1"
   id="svg2"
   width="150"
   height="150"
   viewBox="0 0 150 150"
   sodipodi:docname="bia.svg"
   inkscape:export-filename="Users\antob\Desktop\SITO 🔧 VALE\ICONE\round icons\sezione 3\bia.svg"
   inkscape:export-xdpi="96"
   inkscape:export-ydpi="96"
   inkscape:version="1.2.2 (732a01da63, 2022-12-09)"
   xmlns:inkscape="http://www.inkscape.org/namespaces/inkscape"
   xmlns:sodipodi="http://sodipodi.sourceforge.net/DTD/sodipodi-0.dtd"
   xmlns="http://www.w3.org/2000/svg"
   xmlns:svg="http://www.w3.org/2000/svg">
  <defs
     id="defs6" />
  <sodipodi:namedview
     id="namedview4"
     pagecolor="#ffffff"
     bordercolor="#000000"
     borderopacity="0.25"
     inkscape:showpageshadow="2"
     inkscape:pageopacity="0.0"
     inkscape:pagecheckerboard="0"
     inkscape:deskcolor="#d1d1d1"
     showgrid="false"
     inkscape:zoom="5.58"
     inkscape:cx="42.293907"
     inkscape:cy="75.089606"
     inkscape:window-width="1920"
     inkscape:window-height="1017"
     inkscape:window-x="-8"
     inkscape:window-y="-8"
     inkscape:window-maximized="1"
     inkscape:current-layer="svg2" />
  <path
     id="path1219"
     style="fill:#000000;fill-opacity:1;stroke:none;stroke-width:3;stroke-linecap:round;stroke-linejoin:round;stroke-dasharray:none;stroke-opacity:1;paint-order:stroke fill markers"
     d="M 75,0 A 75,75 0 0 0 0,75 75,75 0 0 0 75,150 75,75 0 0 0 150,75 75,75 0 0 0 75,0 Z m -0.0059,25.005859 c 19.054941,0 19.054875,-7e-4 19.859375,0.429688 1.265378,0.676945 1.957893,1.355495 2.501953,2.447265 0.503779,1.010962 0.503906,1.010816 0.503906,21.94336 0,20.932543 -1.27e-4,20.932396 -0.503906,21.943359 -0.801439,1.608267 -2.380325,2.700004 -4.220703,2.917969 -0.983679,0.116501 -0.983107,0.116576 -0.910157,1.503906 0.12503,2.378002 1.46023,4.328661 3.679688,5.375 1.060879,0.500135 1.152875,0.50691 6.939454,0.623047 6.31308,0.126703 6.5888,0.167979 8.69531,1.271485 2.53116,1.325961 4.42906,3.548986 5.41016,6.33789 0.4773,1.3568 0.52019,1.755525 0.60351,5.613281 0.0882,4.084006 0.0968,4.151634 0.50782,4.152344 0.62642,0.001 1.62867,0.688177 1.9707,1.349607 0.23897,0.46212 0.30246,1.29715 0.30273,3.9668 3.9e-4,3.38097 0.002,3.37997 0.88086,3.93555 1.78012,1.12462 3.25931,3.48663 3.66407,5.84961 0.71641,4.18235 -1.83409,8.08357 -5.49219,9.59765 a 1.5,1.5 0 0 1 -0.45899,0.25391 c -1.53299,0.49916 -3.17577,0.61013 -4.76171,0.32031 -1.40897,-0.25747 -2.78468,-0.83432 -3.94336,-1.76758 -0.90608,-0.7298 -1.64403,-1.65013 -2.16016,-2.6914 -0.76474,-1.54282 -0.99516,-3.24066 -0.88281,-4.85352 0.0366,-0.52559 0.12528,-1.05331 0.24219,-1.57812 0.015,-0.0949 0.0414,-0.19314 0.0625,-0.28125 0.20144,-0.79427 0.49482,-1.57532 0.92382,-2.3086 0.71111,-1.21546 1.7279,-2.23226 2.94336,-2.94336 a 1.5,1.5 0 0 1 0.13672,-0.0293 c 0.23828,-0.32662 0.24727,-0.93447 0.24805,-3.11915 5.8e-4,-1.68418 0.0954,-3.40404 0.21094,-3.82031 0.26946,-0.97045 1.01821,-1.658545 1.96875,-1.810544 0.75026,-0.11997 0.75,-0.120333 0.75,-3.50586 0,-1.862028 -0.0978,-3.852265 -0.21875,-4.421875 -0.53053,-2.498454 -2.28222,-4.719278 -4.61719,-5.859375 -1.32048,-0.644754 -1.32054,-0.645024 -7.1836,-0.767578 -6.251804,-0.13068 -6.639934,-0.186493 -8.572262,-1.208984 -2.893297,-1.530992 -4.814453,-4.67406 -4.814453,-7.876953 0,-1.249742 -4.22e-4,-1.25 -2.44336,-1.25 -2.442947,0 -2.441363,3.16e-4 -2.439453,5.716797 0.002,5.595905 0.01121,5.73691 0.462891,6.707031 0.799889,1.717811 2.647907,2.820312 4.728515,2.820312 2.164778,0 4.631225,1.364732 5.996094,3.31836 0.902629,1.291997 1.281913,2.512924 1.445313,4.638671 0.10891,1.416869 0.172617,1.619141 0.498046,1.619141 0.62714,0 1.520656,0.572437 1.921876,1.230467 0.339319,0.5565 0.383541,1.00492 0.388671,4.04688 0.006,3.42011 0.005,3.41901 1.001952,4.0957 2.59893,1.76368 4.09005,5.39045 3.51172,8.54102 -0.89044,4.85094 -5.461036,8.14833 -10.175781,7.33984 -7.077433,-1.21365 -9.951713,-9.64047 -5.054688,-14.81836 0.56807,-0.60065 1.275206,-1.21747 1.572266,-1.37109 0.54011,-0.2793 0.541016,-0.27944 0.541016,-3.37696 0,-1.70363 0.0551,-3.3751 0.123047,-3.71484 0.187009,-0.93505 1.047814,-1.741798 2.027343,-1.898438 0.83291,-0.13319 0.831636,-0.13238 0.728516,-1.636719 -0.14568,-2.125488 -0.914303,-3.54464 -2.394531,-4.412109 -0.62062,-0.363709 -1.3961,-0.57225 -2.792969,-0.753906 -1.213989,-0.157877 -2.344836,-0.439089 -3.041016,-0.757813 -1.417758,-0.649069 -3.01277,-2.246664 -3.75,-3.751953 -0.574299,-1.172612 -0.575745,-1.171884 -0.634765,-7.376953 -0.059,-6.205069 -0.05737,-6.205078 -2.587891,-6.205078 -2.530497,0 -2.53125,6.14e-4 -2.53125,6.044921 0.3627,0.3627 0,11.805182 0,15.160157 0,3.615546 -3.4e-4,3.614504 0.53711,3.615234 0.790719,9.8e-4 1.791971,0.695837 2.113281,1.464847 0.20704,0.49553 0.28125,1.54078 0.28125,3.95898 0,3.28654 -4.89e-4,3.28613 0.55664,3.61524 0.76525,0.45204 2.133995,1.84554 2.714844,2.76367 2.219768,3.50875 1.576771,8.27088 -1.503906,11.12304 -2.286108,2.11652 -5.222676,2.91457 -8.126953,2.20899 -4.233506,-1.0285 -7.30684,-5.31869 -6.806641,-9.5 0.32651,-2.72939 1.930141,-5.36609 4.011719,-6.5957 0.555179,-0.32796 0.554687,-0.3287 0.554687,-3.61524 0,-2.4182 0.07426,-3.46345 0.28125,-3.95898 0.32132,-0.76901 1.322552,-1.463767 2.113282,-1.464847 0.537439,-7.8e-4 0.537109,2.62e-4 0.537109,-3.615234 0,-0.303005 0.01103,-0.309157 0.01172,-0.564453 C 73.357337,93.382615 73.625,86.083827 73.625,80.789062 c 0,-6.044307 -7.53e-4,-6.044921 -2.53125,-6.044921 -2.530497,0 -2.528871,9e-6 -2.587891,6.205078 -0.059,6.205069 -0.06045,6.204341 -0.634765,7.376953 -0.73723,1.505289 -2.332252,3.102884 -3.75,3.751953 -0.69619,0.318724 -1.827017,0.599936 -3.041016,0.757813 -1.396858,0.181656 -2.170406,0.390197 -2.791016,0.753906 -1.480228,0.867469 -2.250804,2.286621 -2.396484,4.412109 -0.10311,1.504339 -0.104383,1.503529 0.728516,1.636719 0.979539,0.15664 1.840334,0.963388 2.027344,1.898438 0.0679,0.33974 0.123046,2.0055 0.123046,3.70312 0,3.0866 2.71e-4,3.08678 0.65625,3.49219 1.066759,0.6593 2.455657,2.28666 3.066407,3.5918 2.487617,5.31591 -0.805239,11.48946 -6.664063,12.49414 -4.736295,0.81219 -9.348624,-2.54682 -10.183594,-7.41602 -0.542049,-3.16099 0.933674,-6.71004 3.519532,-8.46484 0.997149,-0.67669 0.996183,-0.67559 1.001953,-4.0957 0.005,-3.04196 0.0493,-3.49038 0.388672,-4.04688 0.401229,-0.65803 1.296688,-1.230467 1.923828,-1.230467 0.325429,0 0.387184,-0.202272 0.496093,-1.619141 0.0684,-0.890189 0.253893,-2.058296 0.414063,-2.597656 0.38649,-1.301428 1.549131,-2.931881 2.724609,-3.820312 1.099829,-0.831253 3.071581,-1.539063 4.28711,-1.539063 2.097298,0 3.941711,-1.097039 4.74414,-2.820312 0.45174,-0.970121 0.462974,-1.111126 0.464844,-6.707031 0.002,-5.716481 0.0016,-5.716797 -2.441406,-5.716797 -2.442948,0 -2.443359,2.58e-4 -2.44336,1.25 0,3.202893 -1.921156,6.345961 -4.814453,7.876953 -1.932318,1.022491 -2.320462,1.078304 -8.572265,1.208984 -5.863064,0.122554 -5.863115,0.122824 -7.183594,0.767578 -2.334968,1.140097 -4.086648,3.360921 -4.617188,5.859375 -0.120949,0.56961 -0.21875,2.559847 -0.21875,4.421875 0,3.385527 -2.59e-4,3.38589 0.75,3.50586 0.95055,0.151999 1.699291,0.840094 1.96875,1.810544 0.11558,0.41627 0.210338,2.13613 0.210938,3.82031 10e-4,3.06217 0.0021,3.06139 0.658203,3.4668 1.091209,0.67441 2.460316,2.29657 3.109375,3.6836 1.190839,2.54474 0.931749,5.99639 -0.630859,8.41406 -2.013708,3.11559 -5.682506,4.64957 -9.388672,3.92578 -3.095457,-0.60452 -5.900389,-3.32383 -6.736328,-6.5332 -0.908119,-3.48651 0.618228,-7.57948 3.509765,-9.40625 0.879399,-0.55558 0.87978,-0.5545 0.88086,-3.97461 9.8e-4,-3.04698 0.04293,-3.48946 0.382812,-4.04688 0.40242,-0.65999 1.296115,-1.230467 1.927735,-1.230467 0.357069,0 0.382446,-0.214938 0.472656,-4.152344 0.088,-3.838684 0.133609,-4.263189 0.605469,-5.613281 0.972679,-2.783039 2.872842,-5.010753 5.40625,-6.33789 2.106508,-1.103506 2.384192,-1.144782 8.697265,-1.271485 5.786574,-0.116137 5.876631,-0.122912 6.9375,-0.623047 2.219468,-1.046339 3.554658,-2.996998 3.679688,-5.375 0.073,-1.38733 0.07357,-1.387405 -0.910157,-1.503906 -1.840368,-0.217965 -3.419273,-1.309702 -4.220703,-2.917969 -0.32415,-0.650486 -0.431439,-1.014605 -0.472656,-2.232422 a 1.45,1.45 0 0 1 -0.02148,-0.05078 V 69.06836 c -0.0088,-0.569248 -0.0098,-1.299233 -0.0098,-2.263671 0,-0.478226 0.0076,-0.739365 0.0098,-1.119141 V 51.478516 c -0.0089,-2.027468 -0.0098,-4.695453 -0.0098,-8.371094 0,-3.680181 0.001,-6.347956 0.0098,-8.386719 v -3.943359 a 1.45,1.45 0 0 1 0.05078,-0.125 c 0.06218,-1.968507 0.188345,-2.25778 0.443359,-2.769532 0.54405,-1.09177 1.238528,-1.77032 2.503907,-2.447265 0.804509,-0.430388 0.804444,-0.429688 19.859375,-0.429688 z m 0,2.833985 c -19.94427,0 -18.98249,-0.06074 -19.699219,1.248047 -0.129847,0.237108 -0.204217,0.795157 -0.257813,2.123047 v 38.015624 c 0.14523,1.428017 0.456363,1.884487 1.263672,2.267579 0.60805,0.288538 2.421066,0.318359 18.69336,0.318359 19.94428,0 18.980546,0.06074 19.697265,-1.248047 0.30815,-0.562695 0.333985,-2.133237 0.333985,-20.738281 0,-18.605045 -0.02578,-20.175586 -0.333985,-20.738281 C 93.974646,27.77911 94.93838,27.839844 74.9941,27.839844 Z m -9.675782,2.93164 c 0.203607,0 0.310588,0.0054 0.507813,0.0059 h 15.607422 a 1.45,1.45 0 0 1 0.04883,0.01953 c 0.910251,-0.0063 1.221785,-0.02539 2.736328,-0.02539 6.563243,0 7.221694,0.05713 7.626953,0.664063 0.079,0.118271 0.144845,5.332483 0.146485,11.585937 0.003,11.369919 0.0032,11.368382 -0.511719,11.773438 -0.51142,0.402279 -0.622824,0.40625 -16.486328,0.40625 -15.863505,0 -15.976862,-0.004 -16.488282,-0.40625 -0.514939,-0.405056 -0.514708,-0.403519 -0.511718,-11.773438 0.002,-6.253454 0.0675,-11.467666 0.146484,-11.585937 0.40233,-0.602553 1.06933,-0.664063 7.177734,-0.664063 z m 3.419922,2.90625 c -0.838618,0.0116 -1.64909,0.02539 -2.658203,0.02539 -5.362715,0 -5.361674,-4.09e-4 -5.308594,3.761719 0.0531,3.762128 0.05253,3.761719 3.146485,3.761718 3.093987,0 3.095054,0.0014 4.064453,-2.246093 0.967529,-2.24314 1.622683,-3.126953 2.320312,-3.126953 0.82562,0 1.342672,0.859996 2.9375,4.884765 0.87315,2.203532 1.64661,4.067495 1.71875,4.142578 0.0721,0.07508 0.87931,-1.284501 1.792969,-3.021484 0.913659,-1.736984 1.815807,-3.315522 2.003906,-3.507813 0.19946,-0.203893 0.625248,-0.349609 1.023438,-0.349609 0.731049,0 1.083966,0.372112 2.296875,2.425781 0.535499,0.906681 0.53505,0.907109 3.810547,0.853516 3.275486,-0.05359 3.275045,-0.05427 3.328125,-3.816406 0.0531,-3.762128 0.05384,-3.761719 -5.78711,-3.761719 -1.258125,0 -1.502921,-0.01978 -2.285156,-0.02539 z m 1.580078,7.785157 c -0.082,-0.08533 -0.387824,0.373511 -0.677734,1.019531 -0.28992,0.646019 -0.633712,1.243884 -0.763672,1.328125 -0.12996,0.08424 -1.994743,0.196255 -4.144531,0.25 -3.908706,0.09772 -3.908118,0.09902 -3.960938,4.154297 -0.0528,4.055282 -0.05202,4.054687 14.222657,4.054687 14.274705,0 14.273523,5.95e-4 14.220703,-4.054687 -0.0528,-4.055281 -0.05165,-4.056579 -4.21875,-4.154297 -3.538437,-0.08298 -4.194407,-0.144337 -4.341797,-0.408203 -0.0955,-0.170908 -0.337353,-0.514574 -0.539063,-0.763672 -0.366739,-0.452906 -0.367647,-0.453226 -2.265625,3.166016 -1.867638,3.561403 -2.257788,4.064453 -3.148437,4.064453 -0.689919,0 -1.27837,-1.010543 -2.730469,-4.689453 -0.827319,-2.096043 -1.570354,-3.881473 -1.652344,-3.966797 z m -7.050781,16.669921 c 0.55304,0 0.947143,0.306132 2.957031,2.298829 2.168318,2.149779 2.31836,2.349818 2.31836,3.058593 0,0.6985 -0.156295,0.918539 -2.001953,2.798828 -1.901978,1.937657 -2.740411,2.593443 -3.3125,2.591797 -0.1397,-3.9e-4 -0.519338,-0.166088 -0.841797,-0.367187 -0.32247,-0.201099 -1.442206,-1.243091 -2.490235,-2.316406 -1.746668,-1.788831 -1.90625,-2.014925 -1.90625,-2.708985 0,-0.707555 0.152995,-0.907854 2.320313,-3.05664 2.009878,-1.992697 2.403982,-2.298828 2.957031,-2.298829 z m 18.566406,0 c 8.979621,0 9.59541,0.04059 10.011719,0.664063 0.079,0.118271 0.144845,2.252814 0.146485,4.744141 0.003,4.529684 0.0032,4.530491 -0.511719,4.935546 -0.50427,0.396659 -0.703054,0.404297 -9.646485,0.404297 -8.943421,0 -9.144168,-0.0076 -9.648437,-0.404297 -0.51494,-0.405055 -0.514709,-0.405862 -0.511719,-4.935546 0.002,-2.491327 0.0675,-4.62587 0.146484,-4.744141 0.4163,-0.62347 1.034051,-0.664062 10.013672,-0.664063 z m 0,2.931641 c -7.426532,0 -7.427734,-0.0015 -7.427734,2.441406 0,2.442941 0.0012,2.44336 7.427734,2.44336 7.426543,0 7.425782,-4.19e-4 7.425782,-2.44336 0,-2.44294 7.61e-4,-2.441406 -7.425782,-2.441406 z m -18.566406,0.916016 c -0.219961,0 -0.440935,0.214734 -0.880859,0.646484 -0.879839,0.863502 -0.87948,0.864736 -0.05664,1.703125 0.45256,0.461114 0.87477,0.837891 0.9375,0.837891 0.0627,0 0.482997,-0.376777 0.935547,-0.837891 0.822809,-0.838389 0.823168,-0.839623 -0.05664,-1.703125 -0.439919,-0.43175 -0.658945,-0.646484 -0.878906,-0.646484 z M 33.962891,102.49609 c -1.379889,0 -1.378907,-3.7e-4 -1.378907,3.71289 0,3.45269 0.02716,3.74203 0.390625,4.10547 0.49257,0.49257 1.19148,0.49935 1.78711,0.0176 0.451459,-0.36519 0.462084,-0.45474 0.521484,-4.10547 0.0607,-3.73091 0.05958,-3.73047 -1.320312,-3.73047 z m 20.509765,0 c -1.368048,0 -1.36914,-6.3e-4 -1.36914,3.67579 0,3.42968 0.0287,3.70644 0.40039,4.10546 0.55872,0.59972 1.421971,0.56003 1.931641,-0.0879 0.376389,-0.4785 0.404297,-0.76835 0.404297,-4.10351 0,-3.58919 8.61e-4,-3.58985 -1.367188,-3.58985 z m 20.521485,0 c -1.368049,0 -1.369141,6.6e-4 -1.369141,3.58985 0,3.33516 0.02794,3.62501 0.404297,4.10351 0.26859,0.34146 0.594874,0.51563 0.964844,0.51563 0.369969,0 0.694301,-0.17417 0.96289,-0.51563 0.37639,-0.4785 0.404297,-0.76835 0.404297,-4.10351 0,-3.58919 8.61e-4,-3.58985 -1.367187,-3.58985 z m 20.519531,0 c -1.368039,0 -1.367188,6.6e-4 -1.367188,3.58985 0,3.33516 0.02795,3.62501 0.404297,4.10351 0.50064,0.63646 1.258587,0.67262 1.878907,0.0899 0.441739,-0.415 0.453125,-0.51038 0.453124,-4.10352 0,-3.6792 -0.0011,-3.67969 -1.36914,-3.67969 z m 20.509768,0 c -1.37989,0 -1.38101,-4.4e-4 -1.32032,3.73047 0.0594,3.65073 0.072,3.74028 0.52344,4.10547 0.59564,0.48182 1.29259,0.47494 1.78516,-0.0176 0.36344,-0.36344 0.39062,-0.65278 0.39062,-4.10547 0,-3.71326 9.9e-4,-3.71289 -1.3789,-3.71289 z m -86.003909,9.06055 c -0.141228,0.003 -0.291577,0.17359 -0.591797,0.51563 -1.274128,1.45147 -1.797735,3.56332 -1.347656,5.43945 0.43874,1.82886 2.148991,3.65908 3.97461,4.25586 1.103098,0.36061 3.143142,0.23458 4.269531,-0.26367 2.105848,-0.93152 3.331881,-2.72852 3.457031,-5.06836 0.0941,-1.75956 -0.311399,-3.06504 -1.298828,-4.17774 -0.723089,-0.8148 -0.723424,-0.81364 -1.601563,0.0645 -1.376668,1.37666 -3.035833,1.66948 -4.800781,0.84765 -0.546019,-0.25425 -1.232278,-0.75833 -1.523437,-1.12109 -0.264695,-0.32979 -0.395881,-0.49525 -0.53711,-0.49219 z m 89.945309,0 c -0.13929,-0.003 -0.27046,0.16243 -0.53515,0.49219 -0.29116,0.36276 -0.97742,0.86684 -1.52344,1.12109 -1.76495,0.82183 -3.42412,0.52901 -4.80078,-0.84765 -0.87815,-0.87814 -0.87874,-0.8785 -1.59766,-0.0684 -0.23109,0.2604 -0.42189,0.52649 -0.58789,0.80664 -0.18887,0.35365 -0.3562,0.72522 -0.47265,1.12695 -0.0203,0.0712 -0.031,0.15471 -0.0488,0.22852 -0.0804,0.31792 -0.13012,0.64829 -0.16797,0.98242 -0.022,0.22933 -0.032,0.4787 -0.0391,0.73437 -0.0189,1.03854 0.13582,2.0592 0.55859,2.91211 0.32165,0.64891 0.79241,1.23594 1.35547,1.68946 0.55402,0.44619 1.23893,0.74491 1.95703,0.95703 0.0804,0.0189 0.1374,0.0208 0.22266,0.043 0.29206,0.0757 0.57698,0.13295 0.85742,0.17578 0.95731,0.10938 1.94165,0.0514 2.85547,-0.2461 a 1.5,1.5 0 0 1 0.0996,0.008 c 0.80558,-0.28323 1.54564,-0.74682 2.21289,-1.41407 1.24358,-1.24358 1.68554,-2.33767 1.68554,-4.17969 0,-1.72598 -0.36749,-2.73638 -1.45312,-4.00585 -0.29249,-0.34201 -0.43883,-0.51257 -0.57813,-0.51563 z m -69.343746,0.0566 c -0.145359,-0.0182 -0.27527,0.12042 -0.53711,0.39649 -0.288019,0.30367 -0.755992,0.99184 -1.039062,1.52929 -0.709399,1.3469 -0.739793,3.66737 -0.06445,4.98242 1.490648,2.90281 4.624011,4.20373 7.517578,3.1211 1.408018,-0.52681 2.715774,-1.7094 3.371094,-3.04883 1.034589,-2.11463 0.566224,-5.02536 -1.058594,-6.58203 -0.56111,-0.53759 -0.560779,-0.53689 -1.423828,0.32617 -1.776738,1.77673 -4.417977,1.6971 -6.140625,-0.18359 -0.319595,-0.34892 -0.479642,-0.52281 -0.625,-0.54102 z m 48.74414,0 c -0.145358,0.0182 -0.3054,0.1921 -0.625,0.54102 -1.722638,1.88069 -4.363886,1.96032 -6.140625,0.18359 -0.863049,-0.86306 -0.862708,-0.86376 -1.423828,-0.32617 -1.624818,1.55667 -2.093182,4.4674 -1.058593,6.58203 1.460818,2.98582 5.169769,4.28126 8.035156,2.80859 1.167799,-0.60019 2.235796,-1.67795 2.853516,-2.88086 0.67531,-1.31505 0.64493,-3.63552 -0.0644,-4.98242 -0.28306,-0.53745 -0.74909,-1.22562 -1.037113,-1.52929 -0.261835,-0.27607 -0.393704,-0.4147 -0.539063,-0.39649 z m -28.166015,0.0391 c -0.159886,-0.01 -0.316025,0.14211 -0.63086,0.44727 -1.506048,1.45972 -1.986347,4.28482 -1.074218,6.32422 0.708629,1.58439 2.170048,2.86436 3.935547,3.44531 0.956829,0.31485 3.157322,0.0697 4.201171,-0.4668 1.251919,-0.64342 2.308512,-1.74132 2.863282,-2.97851 0.903599,-2.01513 0.415476,-4.87846 -1.076172,-6.32422 -0.62967,-0.61031 -0.627925,-0.61038 -1.277344,0.0781 -0.982149,1.04126 -1.696076,1.34766 -3.146484,1.34766 -1.450409,0 -2.164336,-0.3064 -3.146485,-1.34766 -0.324709,-0.34425 -0.488551,-0.51561 -0.648437,-0.52539 z" />
</svg>
