<?xml version="1.0" encoding="UTF-8" standalone="no"?>
<!-- Created with Inkscape (http://www.inkscape.org/) -->

<svg
   version="1.1"
   id="svg2"
   width="150"
   height="150"
   viewBox="0 0 150 150"
   sodipodi:docname="dieta-personalizzata.svg"
   inkscape:export-filename="Users\antob\Desktop\SITO 🔧 VALE\ICONE\round icons\sezione 3\dieta-personalizzata.png"
   inkscape:export-xdpi="96"
   inkscape:export-ydpi="96"
   inkscape:version="1.2.2 (732a01da63, 2022-12-09)"
   xmlns:inkscape="http://www.inkscape.org/namespaces/inkscape"
   xmlns:sodipodi="http://sodipodi.sourceforge.net/DTD/sodipodi-0.dtd"
   xmlns="http://www.w3.org/2000/svg"
   xmlns:svg="http://www.w3.org/2000/svg">
  <defs
     id="defs6" />
  <sodipodi:namedview
     id="namedview4"
     pagecolor="#ffffff"
     bordercolor="#000000"
     borderopacity="0.25"
     inkscape:showpageshadow="2"
     inkscape:pageopacity="0.0"
     inkscape:pagecheckerboard="0"
     inkscape:deskcolor="#d1d1d1"
     showgrid="false"
     inkscape:zoom="5.58"
     inkscape:cx="42.293907"
     inkscape:cy="75.089606"
     inkscape:window-width="1920"
     inkscape:window-height="1017"
     inkscape:window-x="-8"
     inkscape:window-y="-8"
     inkscape:window-maximized="1"
     inkscape:current-layer="g8" />
  <g
     inkscape:groupmode="layer"
     inkscape:label="Image"
     id="g8">
    <path
       id="path349"
       style="fill:#000000;stroke-width:3;stroke-linecap:round;stroke-linejoin:round;paint-order:stroke fill markers;fill-opacity:1"
       d="M 75,0 A 75,75 0 0 0 0,75 75,75 0 0 0 75,150 75,75 0 0 0 150,75 75,75 0 0 0 75,0 Z M 59.75,25.03125 c 3.630174,-0.09843 7.284549,1.984463 9.001953,5.296875 l 0.658203,1.269531 5.082032,0.06055 5.083984,0.06055 1.074219,0.601562 c 0.712089,0.399308 1.294313,0.926038 1.726562,1.5625 l 0.652344,0.960938 4.035156,0.101562 c 4.488926,0.112763 5.164461,0.275787 6.4375,1.548829 1.399359,1.399353 1.303791,0.241046 1.363281,16.699218 l 0.05469,14.833985 1.048828,1.099609 c 1.148339,1.203913 2.175667,2.737973 2.748047,4.103516 0.20266,0.483483 0.422984,0.945697 0.490234,1.027343 0.0673,0.08165 0.501106,-0.590165 0.964847,-1.492187 1.90504,-3.705485 5.24082,-7.164197 8.6582,-8.976563 0.752,-0.398811 1.04739,-0.46076 1.53711,-0.320312 0.7859,0.225391 1.13292,0.703956 1.14062,1.570312 0.007,0.79388 -0.24022,1.070311 -2.04883,2.279297 -1.65704,1.107676 -4.01306,3.359401 -5.08203,4.857422 -1.47837,2.07174 -2.44841,4.455292 -2.91211,7.15625 l -0.125,0.728516 0.93555,-0.578125 c 1.61338,-0.995803 3.01463,-1.229154 6.69141,-1.121094 3.73786,0.109853 4.76537,0.333176 7.36718,1.609375 4.23771,2.078628 7.49628,6.561805 8.35743,11.5 0.35975,2.062948 0.42237,10.399101 0.0977,13.019531 -1.34019,10.81557 -9.27404,19.14547 -19.34961,20.31641 -2.34087,0.27205 -10.811354,0.15092 -12.304682,-0.17578 -0.67987,-0.14873 -1.079607,-0.13071 -1.660157,0.0762 -0.642329,0.22888 -5.691815,0.27057 -31.53125,0.26367 -16.921933,-0.005 -30.988522,-0.0743 -31.257812,-0.15625 -1.342179,-0.40827 -2.545128,-1.42674 -3.248047,-2.74804 -0.35094,-0.65968 -0.365203,-2.12755 -0.414062,-41.744148 -0.0505,-40.989805 -0.0506,-41.061315 0.349609,-42.13086 0.25799,-0.689532 0.683903,-1.327036 1.195312,-1.789062 1.402079,-1.266692 1.75072,-1.344925 6.359375,-1.423828 3.956966,-0.06775 4.149622,-0.08703 4.269532,-0.464844 0.198599,-0.625702 1.44903,-1.90382 2.318359,-2.369141 0.748209,-0.400496 1.095007,-0.430741 5.919922,-0.490234 l 5.125,-0.0625 0.710937,-1.353516 c 1.352689,-2.574169 3.860741,-4.394707 6.929688,-5.029297 0.511909,-0.105851 1.030232,-0.163672 1.548828,-0.177734 z m 0.212891,3.322266 c -2.765349,0.04156 -5.485554,1.792756 -6.373047,4.78125 -0.51974,1.750164 -0.313347,1.695371 -6.837891,1.80664 l -5.726562,0.09766 -0.503907,0.47461 -0.503906,0.472656 v 3.980469 c 0,3.964623 0.003,3.981282 0.480469,4.458984 l 0.478515,0.478516 h 19.021485 19.021484 l 0.472657,-0.503906 c 0.458569,-0.487608 0.475619,-0.612276 0.537109,-3.955079 0.0397,-2.157088 -0.01839,-3.726576 -0.154297,-4.183593 -0.37859,-1.273084 -0.620746,-1.320313 -6.84375,-1.320313 h -5.488281 l -0.470703,-0.470703 c -0.25935,-0.25935 -0.532009,-0.720676 -0.605469,-1.025391 -0.24257,-1.00621 -1.054629,-2.412056 -1.861328,-3.21875 -1.307343,-1.307346 -2.983369,-1.897989 -4.642578,-1.87305 z m -23.265625,9.884765 -3.728516,0.0625 -3.730469,0.06055 -0.470703,0.546875 -0.470703,0.548828 v 40.53906 40.537106 l 0.570313,0.57227 0.572265,0.57031 h 28.046875 c 15.426025,0 28.046875,-0.0302 28.046875,-0.0684 0,-0.0382 -0.505257,-0.42707 -1.123047,-0.86328 -0.617779,-0.43622 -1.469821,-1.15292 -1.894531,-1.5918 l -0.773437,-0.79687 -23.646485,-0.004 c -22.526947,-0.004 -23.683325,-0.0215 -24.427734,-0.36328 -0.929419,-0.42679 -1.345251,-0.86334 -1.75,-1.83203 -0.26665,-0.63819 -0.300782,-4.71142 -0.300781,-36.1875 0,-31.476078 0.03411,-35.547357 0.300781,-36.185547 0.607809,-1.454692 1.440603,-1.976148 3.425781,-2.142578 l 1.353516,-0.113281 v -1.644532 z m 46.6875,0 v 1.644531 1.644532 l 1.263672,0.117187 c 1.834568,0.171315 2.922209,0.855449 3.412109,2.148438 0.1381,0.364499 0.207031,4.06527 0.207031,10.972656 v 10.419922 l 0.822266,0.138672 c 0.451319,0.07625 1.132312,0.254023 1.513672,0.394531 0.381349,0.140506 0.759263,0.26196 0.839843,0.269531 0.0806,0.0076 0.146485,-5.993014 0.146485,-13.333984 V 39.306641 l -0.503906,-0.472657 c -0.48975,-0.460567 -0.601756,-0.475912 -4.101563,-0.535156 z m -11.896485,0.05859 c 2.086299,0.01048 3.469727,0.03274 3.644531,0.06445 1.398959,0.253809 1.95344,1.988078 0.900391,2.816406 -0.507369,0.399103 -0.678052,0.40625 -11.925781,0.40625 H 52.697266 L 52.21875,41.103516 c -0.657979,-0.657981 -0.648452,-1.638174 0.02344,-2.269532 l 0.503906,-0.474609 10.875,-0.05664 c 2.990617,-0.01581 5.780888,-0.01634 7.867187,-0.0059 z m -25.742187,0.0625 c 1.282288,0 1.529233,0.06032 1.970703,0.474609 0.708679,0.665071 0.704214,1.782153 -0.0098,2.34375 -0.415579,0.326897 -0.793702,0.40625 -1.96289,0.40625 -1.313863,0 -1.49159,-0.04933 -1.925782,-0.517578 -0.609799,-0.657984 -0.612422,-1.45481 -0.0078,-2.158203 0.438649,-0.509981 0.571708,-0.548828 1.935547,-0.548828 z M 34.939453,44.904297 V 79.96875 115.0332 h 21.976563 21.978515 l -0.886719,-1.63672 c -1.052988,-1.94748 -1.934419,-4.28757 -2.474609,-6.5664 -0.32998,-1.39205 -0.409567,-2.56432 -0.492187,-7.253908 -0.13874,-7.875482 0.226225,-10.071972 2.251953,-13.548828 1.095669,-1.880558 3.51884,-4.386891 5.261719,-5.44336 0.671509,-0.407039 1.220703,-0.78674 1.220703,-0.84375 0,-0.057 -0.395297,-0.544144 -0.878907,-1.082031 -1.000659,-1.112969 -1.859534,-2.794467 -2.371093,-4.646484 -0.44373,-1.606414 -0.509482,-6.39497 -0.101563,-7.361328 0.33298,-0.788837 1.249364,-1.231211 3.101563,-1.498047 l 1.421875,-0.205078 V 54.925781 44.904297 h -0.931641 c -0.867659,0 -0.959031,0.04789 -1.306641,0.693359 -0.463549,0.860754 -1.69268,1.990082 -2.5625,2.353516 -0.548039,0.228987 -3.860893,0.273078 -20.148437,0.271484 l -19.492188,-0.002 -0.984375,-0.457031 c -0.994969,-0.463319 -1.814796,-1.266444 -2.347656,-2.296875 -0.26142,-0.505537 -0.390553,-0.5625 -1.263672,-0.5625 z m 9.626953,8.431641 3.230469,0.06641 0.75,0.599609 c 1.350759,1.080197 1.453095,1.479023 1.390625,5.375 l -0.05469,3.433594 -0.564453,0.738281 c -0.952369,1.247466 -1.723786,1.46783 -5.101562,1.462891 -1.966198,-0.0029 -3.175552,-0.09113 -3.675781,-0.269531 -1.814529,-0.647146 -2.148361,-1.407394 -2.244141,-5.091797 -0.084,-3.232205 0.08032,-4.233849 0.851563,-5.150391 0.878529,-1.044071 1.781372,-1.238435 5.417968,-1.164062 z M 41.580078,56.625 v 2.539062 2.541016 h 2.539063 2.541015 V 59.164062 56.625 h -2.541015 z m 25.105469,1.757812 h 12.333984 l 0.423828,0.453126 c 0.45329,0.4825 0.564265,1.463665 0.234375,2.080078 -0.401369,0.749958 -1.059687,0.789138 -13.072265,0.78125 -9.598961,-0.0063 -11.754638,-0.05714 -12.279297,-0.285157 -1.095539,-0.47613 -1.29723,-1.797276 -0.400391,-2.632812 0.41779,-0.389231 0.640018,-0.396485 12.759766,-0.396485 z m 18.712891,9.949219 c -0.427107,0.02228 -0.855623,0.06832 -1.28125,0.138672 l -0.732422,0.121094 0.0039,1.585937 c 0.007,3.789887 1.429146,6.607412 3.902344,7.72461 0.762219,0.34431 1.308728,0.400618 4.103515,0.417968 1.985098,0.01232 3.560163,0.116417 4.101563,0.271485 1.405638,0.402614 1.362509,0.45983 0.974609,-1.308594 -0.644759,-2.939402 -1.502135,-4.628731 -3.152344,-6.210937 -1.973411,-1.892096 -4.930177,-2.896167 -7.919921,-2.740235 z m -41.296876,0.01367 c 3.325737,0 3.893168,0.11288 4.779297,0.941406 0.966719,0.903874 1.09961,1.489744 1.09961,4.871094 0,2.819797 -0.03841,3.166321 -0.439453,3.951172 -0.53678,1.050518 -1.20375,1.558921 -2.324219,1.775391 -1.104529,0.213379 -5.326452,0.192299 -6.275391,-0.03125 -1.001869,-0.23603 -1.615405,-0.670009 -2.140625,-1.515625 -0.398069,-0.640895 -0.449479,-1.007299 -0.511719,-3.646485 -0.077,-3.262874 0.09086,-4.236316 0.894532,-5.191406 0.854329,-1.015309 1.447292,-1.154297 4.917968,-1.154297 z m -2.521484,3.320313 v 2.410156 c 0,1.325105 0.05923,2.467436 0.13086,2.539062 0.0716,0.07163 1.213963,0.13086 2.539062,0.13086 h 2.410156 v -2.539063 -2.541015 h -2.541015 z m 22.5625,1.757812 c 4.905398,0 9.81125,0.06335 10.046875,0.189453 0.5949,0.318383 0.885376,1.274132 0.597656,1.96875 -0.135209,0.326428 -0.404576,0.677915 -0.597656,0.78125 -0.465939,0.249361 -19.70342,0.240009 -20.130859,-0.0098 -0.17393,-0.101627 -0.425977,-0.450524 -0.560547,-0.775391 -0.28648,-0.691644 0.0036,-1.647157 0.597656,-1.964844 0.235625,-0.126102 5.141478,-0.189453 10.046875,-0.189453 z m 27.544922,8.21094 c -4.397626,0.004 -6.687544,0.798113 -9.238281,3.207031 -1.645269,1.553788 -2.709092,3.225991 -3.488281,5.480469 -0.53126,1.537148 -0.542978,1.653958 -0.617188,7.101562 -0.0619,4.546992 -0.01494,5.893942 0.255859,7.521482 0.7519,4.51912 2.572525,8.15939 5.613282,11.22657 2.636677,2.65959 5.724299,4.37012 9.222656,5.10546 2.634537,0.55377 10.289123,0.56054 12.982423,0.0117 2.42526,-0.49424 4.35056,-1.29192 6.3457,-2.6289 4.66731,-3.12765 7.64163,-7.86322 8.61524,-13.71485 0.2708,-1.62754 0.3178,-2.97449 0.25586,-7.521482 -0.0742,-5.447604 -0.0859,-5.564414 -0.61719,-7.101562 -1.50722,-4.360966 -4.88687,-7.563024 -8.875,-8.408204 -1.5513,-0.328769 -6.05836,-0.373845 -7.14453,-0.07227 -0.95857,0.26616 -2.42608,1.60517 -2.88282,2.630859 -0.19657,0.44142 -0.40515,1.521917 -0.4707,2.441406 -0.17065,2.393958 -0.21248,2.517811 -0.97851,2.837891 -0.59066,0.24679 -0.762861,0.24679 -1.35352,0 -0.766039,-0.32008 -0.807866,-0.443933 -0.978516,-2.837891 C 98.189915,84.89303 97.781403,83.929628 96.621094,82.865209 95.469065,81.8084 94.759557,81.631961 91.6875,81.634741 Z m -47.427734,1.755859 c 3.030247,0.003 3.336212,0.03612 4.044922,0.439453 0.477989,0.27201 0.937553,0.760146 1.220703,1.296875 0.421519,0.799029 0.455151,1.088272 0.451171,4.005859 -0.005,3.571017 -0.221996,4.379402 -1.390624,5.212891 -0.62932,0.44884 -0.813208,0.473081 -4.271485,0.525391 -3.387606,0.0512 -3.654154,0.02867 -4.277344,-0.357422 -1.483608,-0.919109 -1.778903,-1.812914 -1.777343,-5.400391 10e-4,-2.819647 0.176462,-3.683699 0.925781,-4.574219 0.860129,-1.022198 1.433262,-1.152007 5.074219,-1.148437 z m 44.015625,1.666016 c 0.197128,-0.02436 0.371759,-0.01458 0.517578,0.0332 0.318049,0.10422 0.701666,0.463783 0.910156,0.851562 0.531429,0.988379 0.227069,1.557072 -1.380859,2.587891 -2.023008,1.296939 -3.018474,3.030249 -3.283204,5.716797 -0.142439,1.445608 -0.31771,1.830756 -1.005859,2.197265 -0.539519,0.28735 -0.820302,0.282963 -1.425781,-0.02344 -0.26648,-0.13483 -0.599195,-0.462036 -0.740234,-0.728516 -0.55378,-1.046339 0.263947,-5.002641 1.410156,-6.818359 1.151814,-1.824592 3.618147,-3.645919 4.998047,-3.816406 z m -46.695313,1.652343 v 2.441407 2.441406 h 2.539063 2.541015 v -2.441406 -2.441407 h -2.541015 z m 20.902344,1.533204 c 3.807251,0 7.61532,0.10362 8.115234,0.3125 1.138379,0.475639 1.357536,1.787125 0.441406,2.640624 -0.412979,0.38475 -0.658758,0.396485 -8.55664,0.396485 -7.897882,0 -8.143661,-0.01179 -8.556641,-0.396485 -0.916129,-0.853499 -0.696972,-2.164985 0.441407,-2.640624 0.499914,-0.20888 4.307983,-0.3125 8.115234,-0.3125 z M 41.921875,98.466797 c 0.642904,-0.02313 1.451116,-0.01749 2.484375,0 4.097256,0.0694 4.328446,0.146604 5.134766,1.724613 0.402099,0.78691 0.439453,1.129 0.439453,4.01171 0,2.9127 -0.03338,3.21567 -0.449219,4.00196 -0.30746,0.58142 -0.719362,0.99332 -1.300781,1.30078 -0.791229,0.41841 -1.07687,0.44852 -4.091797,0.44141 -2.250708,-0.005 -3.424231,-0.0875 -3.837891,-0.26758 -0.809579,-0.35263 -1.595288,-1.33034 -1.861328,-2.31836 -0.13445,-0.49928 -0.19229,-1.96677 -0.150391,-3.76563 0.0654,-2.80801 0.09276,-2.98623 0.587891,-3.734372 0.663494,-1.002539 1.116209,-1.325137 3.044922,-1.394531 z m -0.244141,3.185543 -0.05469,2.49024 -0.05469,2.49219 h 2.550782 2.552734 l -0.05469,-2.49219 -0.05469,-2.49024 h -2.443359 z m 12.611328,1.75782 h 8.19336 c 7.937992,0 8.206778,0.0134 8.585937,0.39257 0.21526,0.21525 0.446725,0.67308 0.515625,1.01758 0.10531,0.52654 0.03045,0.72149 -0.46875,1.22071 l -0.59375,0.59375 h -8.013672 -8.013671 l -0.53711,-0.46289 c -0.696209,-0.59885 -0.744705,-1.68499 -0.103515,-2.32618 z" />
  </g>
</svg>
