<?xml version="1.0" encoding="UTF-8" standalone="no"?>
<!-- Created with Inkscape (http://www.inkscape.org/) -->

<svg
   version="1.1"
   id="svg2"
   width="150"
   height="150"
   viewBox="0 0 150 150"
   sodipodi:docname="prima-visita.svg"
   inkscape:export-filename="Users\antob\Desktop\SITO 🔧 VALE\ICONE\round icons\sezione 3\prima-visita.png"
   inkscape:export-xdpi="96"
   inkscape:export-ydpi="96"
   inkscape:version="1.2.2 (732a01da63, 2022-12-09)"
   xmlns:inkscape="http://www.inkscape.org/namespaces/inkscape"
   xmlns:sodipodi="http://sodipodi.sourceforge.net/DTD/sodipodi-0.dtd"
   xmlns="http://www.w3.org/2000/svg"
   xmlns:svg="http://www.w3.org/2000/svg">
  <defs
     id="defs6" />
  <sodipodi:namedview
     id="namedview4"
     pagecolor="#ffffff"
     bordercolor="#000000"
     borderopacity="0.25"
     inkscape:showpageshadow="2"
     inkscape:pageopacity="0.0"
     inkscape:pagecheckerboard="0"
     inkscape:deskcolor="#d1d1d1"
     showgrid="false"
     inkscape:zoom="5.58"
     inkscape:cx="42.293907"
     inkscape:cy="75.089606"
     inkscape:window-width="1920"
     inkscape:window-height="1017"
     inkscape:window-x="-8"
     inkscape:window-y="-8"
     inkscape:window-maximized="1"
     inkscape:current-layer="g8" />
  <g
     inkscape:groupmode="layer"
     inkscape:label="Image"
     id="g8">
    <path
       id="path3393"
       style="fill:#000000;fill-opacity:1;stroke:none;stroke-width:5;stroke-linecap:round;stroke-linejoin:round;stroke-dasharray:none;stroke-opacity:1;paint-order:stroke fill markers"
       d="M 75,0 A 75,75 0 0 0 0,75 75,75 0 0 0 75,150 75,75 0 0 0 150,75 75,75 0 0 0 75,0 Z M 54.644531,30.441406 a 2.5,2.5 0 0 1 1.675781,0.923828 c 1.123256,1.403243 2.339658,2.732293 3.638672,3.97461 1.382571,1.322223 2.810671,2.491583 4.324219,3.355468 1.559586,0.890163 3.340509,1.530288 5.228516,2.021485 2.649952,0.689428 5.386814,1.051783 8.125,1.095703 2.544955,-0.911555 4.98317,-1.216307 7.048828,-1.757812 4.608114,-1.208003 8.881466,-3.80622 12.074219,-7.341797 a 2.5,2.5 0 0 1 1.726562,-0.820313 2.5,2.5 0 0 1 1.802732,0.640625 2.5,2.5 0 0 1 0.18164,3.53125 c -3.85809,4.272357 -8.949176,7.368387 -14.517575,8.828125 -2.650989,0.694947 -5.07036,1.004201 -7.015625,1.763672 -1.31699,0.514181 -2.643247,1.300574 -4.025391,2.197266 -1.800299,1.167978 -3.551937,2.409101 -5.251953,3.71875 -0.0026,0.002 -0.0052,0.0039 -0.0078,0.0059 -1.339763,1.112585 -2.72789,2.167568 -4.160156,3.158203 -1.912105,1.322515 -3.672925,2.42725 -4.91211,3.72461 -1.226291,1.283858 -2.052347,2.896626 -2.183594,4.433593 -0.131631,1.541497 0.48407,3.228083 1.556641,4.248047 0.592807,0.563733 1.357684,0.986524 2.152344,1.189453 0.794867,0.202982 1.667541,0.197814 2.46289,-0.01172 1.509198,-0.397592 3.09422,-1.677296 4.947266,-3.193359 2.190795,-1.792389 4.598235,-3.584048 7.439453,-4.839844 2.716134,-1.200507 5.644539,-1.814184 8.570313,-1.888671 1.99556,-0.05081 4.157617,0.140642 6.253906,0.996093 1.816728,0.74137 3.260779,1.839756 4.519531,2.857422 5.77479,4.668767 10.43012,10.198958 15.45508,14.943359 0.27909,-0.539888 0.53796,-1.090019 0.76171,-1.654296 1.44498,-3.643918 1.72728,-8.156882 3.30274,-12.802735 1.02216,-3.014204 2.57443,-5.83872 4.57226,-8.316406 a 2.5,2.5 0 0 1 1.67969,-0.916016 2.5,2.5 0 0 1 1.83594,0.539063 2.5,2.5 0 0 1 0.37695,3.515625 c -1.62622,2.016798 -2.89648,4.329674 -3.72851,6.783203 -1.28549,3.790772 -1.55174,8.403753 -3.39063,13.041016 -0.43982,1.109137 -0.97396,2.177291 -1.57812,3.205078 1.72025,1.449223 3.51096,2.980234 5.07226,5.003906 0.87753,1.137396 1.67917,2.438216 2.20899,3.935547 0.5333,1.507063 0.77754,3.19188 0.49609,4.916015 -0.27616,1.691671 -1.02963,3.221556 -2.08203,4.478516 -1.04772,1.251402 -2.35831,2.197752 -3.77148,2.849612 -1.07654,0.49656 -2.33491,0.88304 -3.7461,0.87304 -0.36793,-0.003 -0.73899,-0.12364 -1.11133,-0.18554 -0.21502,1.26201 -0.69001,2.46782 -1.42773,3.51758 -1.40498,1.9992 -3.51223,3.2795 -5.77149,3.80078 -1.13637,0.26221 -2.29531,0.26131 -3.44726,0.14258 0.12285,2.14584 -0.47807,4.27108 -1.73438,6.01757 -1.785449,2.48211 -4.658518,3.8939 -7.669916,3.9336 -0.07845,1.24691 -0.329404,2.43413 -0.77539,3.45117 -0.875155,1.99572 -2.309453,3.88586 -4.419922,5.06836 -2.225104,1.24672 -4.794243,1.46659 -7.140625,0.88867 -2.322456,-0.57204 -4.31568,-1.87889 -5.855469,-3.52344 -0.376154,-0.40175 -0.741896,-0.87466 -1.085937,-1.39258 -1.42219,1.18401 -3.156954,2.17078 -5.205078,2.52539 -2.637253,0.45665 -5.342395,-0.24582 -7.425782,-1.91992 -2.400689,-1.92905 -3.654815,-4.87232 -3.609375,-7.85351 0.0029,-0.19101 0.01984,-0.38044 0.0332,-0.57031 -0.845326,0.0811 -1.709713,0.0645 -2.578126,-0.0938 -1.592505,-0.29019 -3.079539,-1.00573 -4.300781,-2.07812 -1.221837,-1.07292 -2.128188,-2.46072 -2.613281,-4.01953 -0.356282,-1.14492 -0.445598,-2.32656 -0.341797,-3.48633 -0.531336,0.0535 -1.075615,0.0663 -1.632812,0.0156 -2.680333,-0.24379 -4.881265,-1.72981 -6.417969,-3.55665 -1.026256,-1.22 -1.886479,-2.74457 -2.175781,-4.533198 -1.58074,0.516448 -3.316112,0.704418 -5.060547,0.365238 -1.803134,-0.350607 -3.525874,-1.249209 -4.800782,-2.728519 -0.878537,-1.019391 -1.453516,-2.212823 -1.759765,-3.449219 -0.304987,-1.231297 -0.338402,-2.475571 -0.175781,-3.660156 0.419079,-3.052744 2.064358,-5.556567 3.886718,-7.523438 1.534992,-1.656713 2.926744,-2.843532 3.560547,-4.023437 0.412357,-0.767655 0.619378,-1.678307 0.580078,-2.548829 a 2.50025,2.50025 0 0 1 -0.002,-0.15039 C 33.310533,74.39758 33.228811,72.716854 33.039062,71.048828 32.78136,68.783437 32.326254,66.584234 31.572266,64.550781 30.4782,61.600164 28.700812,58.88747 26.433594,56.705078 a 2.5,2.5 0 0 1 -0.06641,-3.535156 2.5,2.5 0 0 1 3.535156,-0.06836 c 2.815718,2.71037 5.000626,6.046493 6.359375,9.710938 0.933428,2.517387 1.453252,5.112802 1.74414,7.669922 0.207117,1.820678 0.291803,3.654041 0.271485,5.486328 0.224,-0.04869 0.451441,-0.08923 0.679687,-0.121094 0.897202,-0.125254 1.823685,-0.116562 2.753907,0.05664 1.360816,0.253379 2.606757,0.837806 3.666015,1.650391 1.056202,0.810238 1.900972,1.825014 2.523438,2.945312 0.687634,1.237588 1.097254,2.601787 1.222656,4 0.447475,-0.164843 0.913916,-0.30779 1.419922,-0.396484 1.636896,-0.286924 3.247047,-0.02223 4.664062,0.585937 1.40553,0.603246 2.577155,1.519479 3.523438,2.560547 1.409277,1.550439 2.525785,3.618773 2.541015,6.042969 7.18e-4,0.114396 -0.02717,0.217467 -0.03125,0.330078 0.536867,-9.39e-4 1.066387,0.03452 1.578125,0.105469 2.069916,0.286992 4.229962,1.135939 5.833985,2.904296 1.732806,1.910337 2.367907,4.414919 2.160156,6.789069 1.241225,-0.14641 2.505824,-0.0564 3.71875,0.30273 1.728078,0.51158 3.272268,1.51807 4.433594,2.90625 1.143308,1.36664 1.854804,3.02901 2.072265,4.7832 0.217239,1.75238 -0.06732,3.52273 -0.800781,5.11328 -0.47317,1.02611 -1.033306,1.81907 -1.578125,2.53516 -0.368593,0.50013 -0.739959,0.99806 -1.111328,1.49609 -0.264097,0.39332 -0.435269,0.70591 -0.460937,0.82813 -0.0287,0.13665 -0.0099,0.43894 0.130859,0.76367 0.149112,0.34403 0.435055,0.75491 0.84375,1.19141 0.960386,1.02573 2.172915,1.78116 3.402344,2.08398 1.205499,0.29692 2.533851,0.1468 3.5,-0.39453 0.930285,-0.52124 1.758571,-1.51846 2.283203,-2.71484 0.376686,-0.859 0.532628,-1.68917 0.449218,-2.31641 -0.04112,-0.30923 -0.141525,-0.58534 -0.263671,-0.78516 -0.118634,-0.19407 -0.280584,-0.34449 -0.41211,-0.41796 a 2.50025,2.50025 0 0 0 -0.002,0 c -0.01561,-0.009 -0.304221,-0.1188 -0.707031,-0.5254 a 2.50025,2.50025 0 0 0 -0.002,-0.002 c -0.203568,-0.20591 -0.42453,-0.48774 -0.587891,-0.88672 -0.167709,-0.40965 -0.260589,-0.89565 -0.162109,-1.46484 0.105689,-0.6109 0.391032,-1.08543 0.767578,-1.45117 0.371636,-0.36111 0.785812,-0.5663 1.199219,-0.67383 0.8086,-0.21029 1.430743,-0.0273 1.867187,0.17383 a 2.50025,2.50025 0 0 0 0.002,0 c 0.601535,0.27782 0.940521,0.65531 1.154297,0.93359 a 2.50025,2.50025 0 0 0 0.002,0.002 c 0.205348,0.26747 0.284269,0.42751 0.292969,0.44141 0.05558,0.0888 0.230243,0.25266 0.478516,0.35937 0.264198,0.11357 0.647041,0.19227 1.105468,0.19727 1.428115,0.015 2.974698,-0.75418 3.785157,-1.88086 0.577277,-0.80252 0.881423,-1.87109 0.814453,-2.85742 -0.06698,-0.98633 -0.512887,-2.00357 -1.19336,-2.7207 a 2.50025,2.50025 0 0 1 -0.01172,-0.0117 l -2.378907,-2.54102 a 2.50025,2.50025 0 0 1 3.542969,-3.52539 l 2,1.89258 a 2.50025,2.50025 0 0 1 0.08594,0.084 c 0.655871,0.68315 1.514258,1.20816 2.421878,1.47852 0.90761,0.27036 1.91317,0.3008 2.83594,0.0879 1.14331,-0.2638 2.20187,-0.94497 2.80469,-1.80273 0.58368,-0.83063 0.79569,-1.99147 0.54687,-2.85157 -0.23159,-0.8005 -1.07108,-1.771714 -2.0625,-2.828123 -1.51524,-1.340114 -2.98089,-2.84775 -4.50781,-4.396484 -0.74279,-0.646852 -1.478807,-1.313096 -2.257818,-1.863282 -0.05684,-0.04013 -0.414945,-0.225641 -0.794922,-0.804687 -0.193814,-0.29525 -0.366558,-0.684223 -0.423828,-1.183594 -0.06579,-0.57484 0.03434,-1.151246 0.376953,-1.701172 a 2.50025,2.50025 0 0 1 0.0039,-0.0039 c 0.39739,-0.634591 0.945127,-0.976789 1.519531,-1.140625 0.549814,-0.15682 1.032314,-0.118076 1.429684,-0.01367 a 2.50025,2.50025 0 0 0 0.002,0.002 c 0.77015,0.203268 1.11254,0.577819 1.23437,0.689453 0.36461,0.334188 0.58295,0.620485 0.72266,0.789063 0.44852,0.541181 1.06309,1.031574 1.57031,1.548828 1.58222,1.387059 3.07618,2.822989 4.46289,4.253906 0.12431,0.128281 0.26755,0.311803 0.39844,0.447266 1.0879,0.979362 2.18045,1.914259 3.24219,3.03125 0.15097,0.158823 0.24429,0.252173 0.27929,0.283203 0.14735,0.130677 0.51008,0.282256 0.92188,0.285156 0.44254,0.0032 1.0104,-0.134174 1.61719,-0.414062 0.80313,-0.370465 1.51212,-0.89753 2.03125,-1.517578 0.51448,-0.614487 0.86338,-1.358953 0.98046,-2.076172 0.12008,-0.735617 0.0227,-1.59891 -0.27539,-2.441406 -0.30156,-0.852233 -0.80821,-1.712945 -1.45312,-2.548828 -1.52637,-1.978375 -3.73908,-3.696339 -6.03906,-5.695313 -6.36295,-5.530141 -11.470816,-11.93491 -17.50391,-16.8125 -1.145003,-0.925702 -2.220406,-1.690657 -3.265625,-2.117187 -1.203032,-0.490933 -2.671535,-0.66489 -4.238281,-0.625 -2.309536,0.0588 -4.60193,0.546264 -6.675782,1.46289 -2.176201,0.961863 -4.239968,2.453513 -6.294921,4.134766 -1.761215,1.440927 -3.831401,3.368106 -6.837891,4.160156 -1.628535,0.429033 -3.342779,0.436747 -4.976562,0.01953 -1.633993,-0.417262 -3.13577,-1.246565 -4.359376,-2.410156 -2.269482,-2.15817 -3.352563,-5.241216 -3.091796,-8.294922 0.250499,-2.933495 1.676098,-5.502239 3.548828,-7.462891 1.83938,-1.925732 3.929969,-3.171863 5.683594,-4.384765 1.335371,-0.923617 2.629515,-1.905994 3.876953,-2.945313 a 2.5,2.5 0 0 1 0.0293,-0.0098 2.5,2.5 0 0 1 0.04492,-0.05078 C 67.77734,47.70976 68.987087,46.845725 70.21097,46.002022 69.555675,45.86684 68.901694,45.725234 68.253938,45.55671 66.087753,44.993141 63.88337,44.223606 61.80472,43.037178 59.78786,41.886022 58.059153,40.44053 56.503938,38.953194 55.04488,37.557819 53.67769,36.066431 52.416048,34.490303 a 2.5,2.5 0 0 1 0.390625,-3.515625 2.5,2.5 0 0 1 1.83789,-0.533203 z M 40.234375,80.765625 c -0.58093,-0.0073 -1.208487,0.124691 -1.787109,0.386719 -1.002532,0.453994 -2.03644,1.380521 -3.173828,2.52539 -0.879174,0.97577 -1.772685,1.778808 -2.458985,2.519532 -1.383768,1.493501 -2.379063,3.183906 -2.601562,4.804687 -0.08555,0.623201 -0.05952,1.23742 0.07422,1.777344 0.132472,0.534821 0.382596,1.023865 0.695313,1.386719 0.447409,0.519141 1.180215,0.932995 1.966797,1.085937 0.803116,0.156156 1.735216,0.07596 2.623047,-0.224609 1.24477,-0.421415 2.500391,-1.302351 3.751953,-2.40625 0.816941,-0.924729 1.597481,-1.572023 2.220703,-2.142578 0.187009,-0.187233 0.36667,-0.350462 0.55664,-0.541016 1.134107,-1.20452 1.908017,-2.657442 2.044922,-4.037109 0.09986,-1.006333 -0.124657,-2.086214 -0.617187,-2.972657 -0.31071,-0.559208 -0.72706,-1.047042 -1.195313,-1.40625 -0.465195,-0.356862 -1.009046,-0.602852 -1.537109,-0.701172 -0.179421,-0.03341 -0.368856,-0.05226 -0.5625,-0.05469 z m 12.058594,8.255859 c -0.312053,-0.04229 -0.61519,-0.03978 -0.886719,0.0078 -0.761306,0.133446 -1.716414,0.715082 -2.748047,1.591797 -1.060458,0.901211 -2.108651,1.948088 -3.195312,3.035156 -0.03071,0.03079 -0.05894,0.06524 -0.08984,0.0957 -0.08919,0.08792 -0.158934,0.145252 -0.246094,0.228516 -0.712535,0.710075 -1.434341,1.42677 -2.226562,2.140625 -0.66205,0.819178 -1.015772,1.85031 -0.941407,2.669922 0.06448,0.710627 0.458587,1.55631 1.09961,2.31836 0.85651,1.0182 2.022773,1.70387 3.044922,1.79687 0.677766,0.0616 1.495238,-0.10332 2.294922,-0.4707 0.797903,-0.36656 1.607807,-0.93541 2.43164,-1.62891 0.898482,-0.989067 1.778074,-1.868111 2.578125,-2.681636 0.480032,-0.64693 1.034484,-1.491509 1.966797,-2.339844 0.561775,-0.876963 0.900854,-1.758717 0.896484,-2.458984 -0.0052,-0.827327 -0.464391,-1.857187 -1.242187,-2.712891 -0.542348,-0.59667 -1.166666,-1.060433 -1.794922,-1.330078 -0.308384,-0.132358 -0.629355,-0.219433 -0.941406,-0.261719 z m 8.875,9.59961 c -0.30986,0.0054 -0.605918,0.03624 -0.88086,0.09375 -0.464827,0.09722 -0.883502,0.280454 -1.214843,0.507812 -0.67836,0.926534 -1.396319,1.739334 -2.113282,2.474614 -0.797442,0.98224 -1.674137,1.85747 -2.585937,2.65039 -0.110992,0.12215 -0.241945,0.24691 -0.345703,0.36914 -0.77987,0.91871 -1.358629,1.84558 -1.619141,2.71875 -0.239443,0.8026 -0.240226,1.68869 -0.0078,2.43554 0.204912,0.65848 0.613642,1.28872 1.136718,1.74805 0.523671,0.45984 1.206401,0.78794 1.898438,0.91406 0.702126,0.12796 1.504831,0.0678 2.277344,-0.17187 0.74343,-0.23063 1.484797,-0.63781 2.175781,-1.16211 0.63939,-0.68196 1.255107,-1.19524 1.763672,-1.64258 0.544399,-0.57644 1.113968,-1.21003 1.746094,-1.87109 0.177385,-0.18551 0.379429,-0.37296 0.568359,-0.56055 1.021889,-1.31427 1.721665,-2.73105 1.861328,-4.04688 0.123,-1.15882 -0.233061,-2.37392 -0.878906,-3.085932 -0.595685,-0.656714 -1.643257,-1.147892 -2.816407,-1.310547 -0.33132,-0.04594 -0.654985,-0.06596 -0.964843,-0.06055 z m 10.728515,9.726566 c -0.414627,5.9e-4 -0.830383,0.0579 -1.220703,0.17382 -0.980978,0.29148 -1.996424,1.02166 -3.011719,1.98438 -0.730563,0.90095 -1.524262,1.72533 -2.355468,2.48437 -0.582529,0.61774 -1.233294,1.24293 -1.970703,1.84766 -0.768463,0.91051 -1.23753,2.15269 -1.25586,3.35547 -0.02238,1.4687 0.675653,3.02227 1.744141,3.88086 0.922754,0.74147 2.276836,1.09193 3.439453,0.89062 1.080991,-0.18717 2.241662,-0.84958 3.269531,-1.80273 0.943405,-0.87483 1.819987,-2.00852 2.75586,-3.25977 0.07441,-0.0995 0.148342,-0.19928 0.222656,-0.29882 0.07721,-0.10604 0.160639,-0.25149 0.232422,-0.34766 0.859903,-1.15207 1.591393,-2.04629 1.949218,-2.82227 0.342139,-0.74196 0.47963,-1.60759 0.38086,-2.40429 -0.09854,-0.79488 -0.442425,-1.58796 -0.947266,-2.19141 -0.512023,-0.61204 -1.245065,-1.09162 -2.017578,-1.32031 -0.386712,-0.11446 -0.800216,-0.17052 -1.214844,-0.16992 z m 17.564454,6.08593 c 0.22974,0.12854 0.329865,0.36836 0.535156,0.52149 -0.04603,-0.0556 -0.08895,-0.15677 -0.132813,-0.20117 l -0.002,-0.002 c -0.31581,-0.31878 -0.49268,-0.37006 -0.40039,-0.31836 z" />
  </g>
</svg>
