<?xml version="1.0" encoding="UTF-8" standalone="no"?>
<!-- Created with Inkscape (http://www.inkscape.org/) -->

<svg
   version="1.1"
   id="svg2"
   width="150"
   height="150"
   viewBox="0 0 150 150"
   sodipodi:docname="visita-di-controllo.svg"
   inkscape:export-filename="Users\antob\Desktop\SITO 🔧 VALE\ICONE\round icons\sezione 3\visita-di-controllo.png"
   inkscape:export-xdpi="96"
   inkscape:export-ydpi="96"
   inkscape:version="1.2.2 (732a01da63, 2022-12-09)"
   xmlns:inkscape="http://www.inkscape.org/namespaces/inkscape"
   xmlns:sodipodi="http://sodipodi.sourceforge.net/DTD/sodipodi-0.dtd"
   xmlns="http://www.w3.org/2000/svg"
   xmlns:svg="http://www.w3.org/2000/svg">
  <defs
     id="defs6" />
  <sodipodi:namedview
     id="namedview4"
     pagecolor="#ffffff"
     bordercolor="#000000"
     borderopacity="0.25"
     inkscape:showpageshadow="2"
     inkscape:pageopacity="0.0"
     inkscape:pagecheckerboard="0"
     inkscape:deskcolor="#d1d1d1"
     showgrid="false"
     inkscape:zoom="5.58"
     inkscape:cx="42.293907"
     inkscape:cy="75.089606"
     inkscape:window-width="1920"
     inkscape:window-height="1017"
     inkscape:window-x="-8"
     inkscape:window-y="-8"
     inkscape:window-maximized="1"
     inkscape:current-layer="g8" />
  <g
     inkscape:groupmode="layer"
     inkscape:label="Image"
     id="g8">
    <path
       id="path347"
       style="fill:#000000;stroke-width:3;stroke-linecap:round;stroke-linejoin:round;paint-order:stroke fill markers;fill-opacity:1"
       d="M 75,0 A 75,75 0 0 0 0,75 75,75 0 0 0 75,150 75,75 0 0 0 150,75 75,75 0 0 0 75,0 Z M 50.816406,28.173828 c 0.651571,0.02312 1.310789,0.210748 1.761719,0.554688 1.056909,0.806145 1.330078,1.578347 1.330078,3.751953 v 1.873047 h 21.074219 21.074219 l 0.06445,-2.134766 c 0.07143,-2.306435 0.242523,-2.740059 1.412109,-3.613281 0.83861,-0.626114 2.57471,-0.564833 3.47657,0.123047 1.0569,0.806145 1.33007,1.578347 1.33007,3.751953 v 1.873047 h 7.00391 c 3.85205,0 7.47614,0.08803 8.05469,0.195312 3.57088,0.662131 6.71311,3.807265 7.39453,7.400391 0.27513,1.450741 0.27513,70.848091 0,72.298831 -0.51031,2.69087 -2.50831,5.3254 -4.94727,6.52148 -0.7674,0.37634 -1.8687,0.77163 -2.44726,0.87891 -0.68114,0.1263 -15.68651,0.18826 -42.572271,0.17773 -34.715075,-0.0136 -41.703523,-0.0604 -42.638672,-0.28711 -1.611918,-0.39074 -2.881619,-1.09344 -4.236328,-2.34765 -1.342269,-1.2427 -2.42519,-3.18968 -2.75,-4.94141 -0.2673,-1.44152 -0.2673,-70.859269 0,-72.300781 0.32481,-1.75173 1.407731,-3.700658 2.75,-4.94336 0.653379,-0.604916 1.618752,-1.317553 2.144531,-1.583984 1.906398,-0.966048 2.845115,-1.061338 10.466797,-1.064453 l 7.0625,-0.0039 0.06445,-2.134766 c 0.0714,-2.306435 0.242521,-2.740059 1.412109,-3.613281 0.419305,-0.313057 1.063274,-0.454764 1.714844,-0.431641 z m -3.158203,12.416016 -7.210937,0.05469 c -6.933443,0.05355 -7.231781,0.07188 -7.75,0.458985 -1.327139,0.991376 -1.339457,1.040538 -1.404297,5.958984 l -0.05859,4.476562 H 75 118.76367 l -0.0586,-4.476562 c -0.0648,-4.918446 -0.0752,-4.967608 -1.40235,-5.958984 -0.51822,-0.387111 -0.81851,-0.405439 -7.75195,-0.458985 l -7.21094,-0.05469 v 1.880859 c 0,2.181008 -0.27223,2.950948 -1.33007,3.757813 -0.98502,0.751306 -2.604833,0.751306 -3.589848,0 -1.056911,-0.806148 -1.330078,-1.576394 -1.330078,-3.75 v -1.875 H 75 53.908203 v 1.875 c 0,2.173606 -0.273169,2.943852 -1.330078,3.75 -0.985019,0.751306 -2.602872,0.751306 -3.587891,0 -1.057849,-0.806865 -1.332031,-1.576805 -1.332031,-3.757813 z M 31.253906,57.789062 v 27.621094 c 0,19.089874 0.06499,27.789964 0.208985,28.169924 0.277099,0.73132 0.927945,1.41804 1.646484,1.73828 0.48404,0.21573 7.804015,0.25532 42.119141,0.2207 l 41.533204,-0.043 0.53906,-0.40234 c 0.29661,-0.22145 0.7219,-0.64481 0.94336,-0.94141 0.4017,-0.53802 0.40246,-0.60427 0.45313,-28.451168 l 0.0508,-27.91211 H 75.001953 Z m 62.082032,9.417969 c 1.011318,-0.05798 1.9099,0.414481 2.644531,1.398438 0.60399,0.808979 0.560943,2.530484 -0.08594,3.451172 -2.219319,3.158708 -25.478344,33.397969 -25.902343,33.675779 -0.75521,0.49483 -2.160954,0.58021 -2.945313,0.17969 -0.815359,-0.41634 -12.957898,-13.373567 -13.304687,-14.197266 -0.74337,-1.765699 0.52284,-3.922474 2.455078,-4.181641 1.593068,-0.213675 1.859778,-0.0031 7.033203,5.533203 l 4.833984,5.173828 0.390625,-0.458984 c 0.21537,-0.2521 5.472244,-7.106702 11.679688,-15.232422 10.641198,-13.929606 11.335337,-14.792705 12.154296,-15.105469 0.360121,-0.137531 0.709769,-0.217 1.046876,-0.236328 z" />
  </g>
</svg>
